<svg width="158" height="158" viewBox="0 0 158 158" fill="none" xmlns="http://www.w3.org/2000/svg">
<path d="M153.886 69.1304L143.233 56.7537C141.196 54.4037 139.551 50.017 139.551 46.8837V33.567C139.551 25.2637 132.736 18.4487 124.433 18.4487H111.116C108.061 18.4487 103.596 16.8037 101.246 14.767L88.8695 4.11371C83.4645 -0.507956 74.6128 -0.507956 69.1295 4.11371L56.8312 14.8454C54.4812 16.8037 50.0162 18.4487 46.9612 18.4487H33.4095C25.1062 18.4487 18.2912 25.2637 18.2912 33.567V46.962C18.2912 50.017 16.6462 54.4037 14.6878 56.7537L4.11282 69.2087C-0.430511 74.6137 -0.430511 83.387 4.11282 88.792L14.6878 101.247C16.6462 103.597 18.2912 107.984 18.2912 111.039V124.434C18.2912 132.737 25.1062 139.552 33.4095 139.552H46.9612C50.0162 139.552 54.4812 141.197 56.8312 143.234L69.2078 153.887C74.6128 158.509 83.4645 158.509 88.9478 153.887L101.324 143.234C103.674 141.197 108.061 139.552 111.194 139.552H124.511C132.814 139.552 139.629 132.737 139.629 124.434V111.117C139.629 108.062 141.274 103.597 143.311 101.247L153.964 88.8704C158.508 83.4654 158.508 74.5354 153.886 69.1304ZM111.586 64.1954L73.7512 102.03C72.6545 103.127 71.1662 103.754 69.5995 103.754C68.0328 103.754 66.5445 103.127 65.4478 102.03L46.4912 83.0737C44.2195 80.802 44.2195 77.042 46.4912 74.7704C48.7628 72.4987 52.5228 72.4987 54.7945 74.7704L69.5995 89.5754L103.283 55.892C105.554 53.6204 109.314 53.6204 111.586 55.892C113.858 58.1637 113.858 61.9237 111.586 64.1954Z" fill="#52C355"/>
</svg>
