<svg width="193" height="181" viewBox="0 0 193 181" fill="none" xmlns="http://www.w3.org/2000/svg">
<path fill-rule="evenodd" clip-rule="evenodd" d="M13.5814 86.1779C13.5814 86.1779 5.41356 79.2005 16.8725 55.1095C28.3315 31.0186 51.5381 36.2989 66.3716 26.8231C88.2888 12.8221 79.3054 1.86524 106.634 0.0991046C141.044 -2.1246 142.992 33.8106 160.208 33.8106C161.34 33.8106 188.147 23.0389 192.071 52.5269C194.047 67.3772 160.208 90.023 160.208 90.023C160.208 90.023 146.124 102.789 145.35 109.093C142.107 135.53 148.871 165.81 73.0676 179.75C63.2639 181.552 46.9851 175.031 38.0041 162.985C30.9681 153.548 2.74398 160.243 0.109335 129.216C-1.21858 113.578 13.5814 86.1779 13.5814 86.1779Z" fill="#E7FDFC"/>
<path d="M64.1443 65.217C64.4 65.0661 64.7295 65.1511 64.8803 65.4068L65.4887 66.4332C67.9047 70.4866 68.871 71.8028 69.8981 72.3979C70.7422 72.887 71.615 72.7352 73.2127 71.7982L73.4262 71.67C74.431 71.0437 79.029 67.8852 80.8068 66.7511C81.0571 66.5914 81.3893 66.6649 81.549 66.9151C81.7086 67.1654 81.6352 67.4976 81.3849 67.6573L81.1113 67.8334C79.1302 69.1176 74.6798 72.1741 73.892 72.6451C71.9576 73.8017 70.7036 74.0617 69.4469 73.3772L69.3592 73.3279C68.0091 72.5457 66.9589 71.045 63.9545 65.953C63.8037 65.6973 63.8887 65.3678 64.1443 65.217Z" fill="white"/>
<path d="M72.848 71.4293C73.1422 71.3899 73.4127 71.5964 73.452 71.8906C73.6351 73.2578 74.0735 74.6287 74.7696 76.0048C74.9035 76.2697 74.7974 76.593 74.5326 76.727C74.2677 76.861 73.9444 76.7549 73.8104 76.49C73.0614 75.0091 72.5861 73.5231 72.3867 72.0333C72.3473 71.7391 72.5538 71.4686 72.848 71.4293Z" fill="white"/>
<path fill-rule="evenodd" clip-rule="evenodd" d="M135.461 104.256C135.374 104.475 135.184 104.779 134.964 105.066L135.154 105.264L135.374 105.499L135.423 105.546C135.445 105.565 135.461 105.576 135.474 105.579C135.545 105.59 135.595 105.655 135.585 105.727C135.575 105.797 135.509 105.848 135.438 105.838C135.373 105.836 135.139 105.745 134.859 105.518C134.809 105.477 134.758 105.429 134.707 105.377C134.546 105.557 134.383 105.711 134.242 105.807C134.035 105.95 133.856 105.962 133.77 105.904C133.686 105.848 133.605 105.658 133.742 105.276C133.764 105.206 133.837 105.17 133.906 105.192C133.974 105.213 134.012 105.286 133.99 105.355C133.969 105.426 133.967 105.491 133.966 105.543L134.046 105.489C134.074 105.469 134.103 105.446 134.129 105.42C134.225 105.325 134.332 105.21 134.44 105.086C134.269 104.888 134.096 104.655 133.955 104.386C133.886 104.255 133.832 104.116 133.78 103.97C133.744 103.888 133.781 103.792 133.863 103.756C133.945 103.72 134.04 103.757 134.076 103.839C134.233 104.167 134.433 104.45 134.631 104.692L134.696 104.771C134.876 104.536 135.031 104.298 135.101 104.116C135.14 104.017 135.252 103.968 135.351 104.006C135.451 104.045 135.5 104.157 135.461 104.256Z" fill="white"/>
<path fill-rule="evenodd" clip-rule="evenodd" d="M55.4914 36.4535L55.1638 36.3942C53.3345 36.0541 51.9319 35.6366 49.3117 34.7282C49.0113 34.624 48.8521 34.296 48.9563 33.9955C49.0605 33.695 49.3885 33.5359 49.689 33.6401L50.342 33.8648C52.6404 34.6492 53.9301 35.0088 55.6914 35.3194C61.6179 36.3644 66.0554 33.3217 66.4184 27.5187C66.4383 27.2013 66.7117 26.9601 67.0291 26.98C67.3465 26.9998 67.5877 27.2732 67.5679 27.5906C67.1595 34.1169 62.0621 37.6121 55.4914 36.4535Z" fill="#00160A"/>
<path fill-rule="evenodd" clip-rule="evenodd" d="M70.2999 42.6681L70.6306 43.4029L71.3844 43.6193C71.4252 43.631 71.4487 43.6735 71.437 43.7143C71.4334 43.7268 71.4267 43.7383 71.4174 43.7475L70.8447 44.3176L70.8768 45.1381C70.8784 45.1805 70.8454 45.2162 70.803 45.2179C70.7887 45.2184 70.7745 45.215 70.762 45.2079L70.1137 44.8386C70.0934 44.8271 70.069 44.8254 70.0473 44.834L69.3539 45.1094C69.3145 45.125 69.2698 45.1058 69.2542 45.0664C69.2489 45.053 69.2474 45.0385 69.25 45.0244L69.3959 44.2163L68.9081 43.572C68.8826 43.5382 68.8892 43.4901 68.923 43.4645C68.9334 43.4566 68.9457 43.4515 68.9587 43.4496L69.7352 43.3403L70.165 42.6586C70.1876 42.6228 70.235 42.612 70.2709 42.6346C70.2836 42.6427 70.2937 42.6543 70.2999 42.6681Z" fill="#00160A"/>
<path d="M146.047 24.1988C146.343 24.1777 146.6 24.4006 146.622 24.6966C146.643 24.9927 146.42 25.2498 146.124 25.271C144.003 25.4223 142.337 26.2441 141.597 28.2771C141.553 28.3995 141.516 28.5176 141.486 28.6299L141.466 28.707L141.499 28.6393C142.43 26.737 144.227 25.4153 146.309 25.0798L146.445 25.0593C146.739 25.0183 147.011 25.2234 147.052 25.5173C147.093 25.8113 146.888 26.0829 146.594 26.1239C144.659 26.3939 143.005 27.6795 142.283 29.5235L142.236 29.6473C141.893 30.5897 141.07 31.0417 140.54 30.2351C140.217 29.7432 140.238 28.8695 140.587 27.9095C141.474 25.4744 143.507 24.38 146.047 24.1988Z" fill="white"/>
<path d="M143.599 20.1948C143.895 20.1737 144.152 20.3966 144.173 20.6927C144.195 20.9887 143.972 21.2459 143.676 21.267C140.302 21.5077 137.344 23.6986 136.167 26.9325C135.818 27.8912 135.753 28.7108 135.878 29.1259L135.893 29.1722L135.917 29.1379C135.977 29.0469 136.044 28.9162 136.111 28.7466L136.139 28.6716C137.382 25.2557 140.397 22.8635 143.932 22.37C144.226 22.3289 144.498 22.534 144.539 22.8279C144.58 23.1219 144.375 23.3935 144.081 23.4345C140.988 23.8663 138.344 25.9304 137.206 28.8881L137.149 29.0392C136.688 30.306 135.691 30.8532 135.054 29.8832C134.617 29.2186 134.647 27.9638 135.157 26.5649C136.48 22.9289 139.806 20.4654 143.599 20.1948Z" fill="white"/>
<path d="M140.3 14.8561C140.596 14.835 140.853 15.0579 140.875 15.354C140.896 15.65 140.673 15.9072 140.377 15.9283C135.565 16.2716 131.346 19.3965 129.667 24.009C129.096 25.5787 129.048 26.9091 129.36 27.4622L129.388 27.5089C129.435 27.5793 129.419 27.5813 129.431 27.5716L129.438 27.5669C129.596 27.4801 129.805 27.1845 129.996 26.6942L130.033 26.5935C131.748 21.8825 135.905 18.5833 140.782 17.9027C141.076 17.8616 141.347 18.0667 141.388 18.3606C141.429 18.6546 141.224 18.9262 140.93 18.9672C136.503 19.5853 132.72 22.5492 131.106 26.793L131.044 26.9612C130.447 28.6001 129.251 29.2567 128.49 28.0992C127.923 27.2363 127.964 25.5441 128.657 23.6413C130.482 18.6268 135.069 15.2293 140.3 14.8561Z" fill="white"/>
<path d="M134.411 9.83882C134.702 9.78178 134.984 9.97167 135.041 10.263C135.098 10.5542 134.909 10.8366 134.617 10.8937C130.261 11.7468 126.758 15.0739 125.742 19.4747C125.398 20.9641 125.502 22.1751 125.84 22.6372L125.885 22.6951L125.888 22.7032L125.894 22.6983C126.015 22.5893 126.156 22.3107 126.266 21.8789L126.289 21.784C127.334 17.2578 130.785 13.7543 135.192 12.5777C135.479 12.5012 135.773 12.6716 135.85 12.9584C135.927 13.2452 135.756 13.5397 135.469 13.6163C131.498 14.6763 128.379 17.8026 127.377 21.854L127.336 22.0258C126.968 23.6221 125.91 24.3841 125.052 23.3736C124.425 22.6346 124.272 21.0663 124.695 19.2329C125.807 14.4152 129.642 10.7727 134.411 9.83882Z" fill="white"/>
<path d="M74.8335 76.1232L75.1437 76.0103C78.076 74.9581 80.5502 74.4937 81.1786 75.1332C81.7298 75.6939 82.221 76.7095 82.6866 78.199C82.7751 78.4823 82.6173 78.7837 82.334 78.8723C82.0507 78.9609 81.7492 78.803 81.6606 78.5197C81.258 77.2315 80.8471 76.3645 80.4585 75.9359L80.4425 75.9192L80.4287 75.9199C80.3551 75.9049 80.2448 75.8973 80.1043 75.9C79.7945 75.906 79.3712 75.9606 78.8656 76.0608C77.8256 76.2669 76.5109 76.6501 75.2055 77.1317C73.0226 77.9369 71.2042 78.883 70.1997 79.7376C69.8309 80.0513 69.1575 79.1774 69.8055 78.6767C70.9713 77.7758 72.7396 76.8956 74.8335 76.1232Z" fill="white"/>
<path d="M73.3579 65.9702C73.3579 67.7628 75.2538 69.7039 75.6572 69.8143C75.9435 69.8927 71.011 73.1065 71.011 73.1065C69.2287 73.341 68.1821 71.8345 68.1821 69.5903C68.1821 69.2935 73.3579 65.6733 73.3579 65.9702Z" fill="white"/>
<path fill-rule="evenodd" clip-rule="evenodd" d="M67.5417 66.9123C68.166 66.7909 68.5902 66.2707 68.4891 65.7504C68.3879 65.2301 67.7998 64.9067 67.1754 65.0281C66.5511 65.1494 66.1269 65.6696 66.228 66.1899C66.3292 66.7102 66.9173 67.0336 67.5417 66.9123Z" fill="#FFB61D"/>
<path d="M131.16 6.85846C131.452 6.80753 131.731 7.00329 131.781 7.29571C131.832 7.58813 131.637 7.86648 131.344 7.91741C129.953 8.15967 128.551 9.00147 127.105 10.3404C125.227 12.0791 123.987 14.4816 123.303 17.6848C122.752 20.2655 123.261 23.4902 124.701 26.3251C126.339 29.5503 129.238 30.3474 132.617 30.9647C136.086 31.5983 137.045 31.207 140.323 30.0416L140.625 29.932C141.073 29.7623 143.168 28.9427 143.671 28.7904C144.731 28.4698 145.454 28.4967 145.978 29.0553C146.181 29.2717 146.171 29.6119 145.954 29.815C145.751 30.0054 145.44 30.0078 145.234 29.829L145.194 29.7909C145.04 29.626 144.72 29.607 144.077 29.7915L143.982 29.8192C143.498 29.9657 141.226 30.8573 140.932 30.9647C137.391 32.2571 136.191 32.71 132.424 32.0221C128.691 31.3403 125.524 30.3197 123.743 26.8119C122.194 23.7634 121.648 20.2888 122.252 17.4604C122.982 14.0417 124.333 11.4418 126.375 9.55175C127.972 8.07226 129.564 7.13637 131.16 6.85846Z" fill="white"/>
<path d="M156.443 49.6233C153.379 49.4667 150.966 51.833 150.941 55.0095C150.92 57.6858 152.427 59.8897 154.498 60.3166C155.336 60.4893 156.943 60.2816 158.136 59.6128C159.947 58.6417 161.331 56.6452 161.505 54.9441C161.79 52.1727 159.546 49.782 156.443 49.6233Z" fill="white"/>
<path d="M100.923 49.0637C101.902 51.0402 103.422 55.6057 102.765 55.5838C100.939 55.5228 98.496 52.7168 96.7874 48.9228L96.6526 48.6176C95.1607 45.1729 94.2674 43.0088 95.3048 42.5943C96.3778 42.1655 98.9036 44.9841 100.923 49.0637Z" fill="white"/>
<path fill-rule="evenodd" clip-rule="evenodd" d="M95.3049 42.5512C96.378 42.1224 98.9409 44.8123 100.961 48.8918C101.939 50.8684 102.603 52.7645 102.777 54.1243C102.777 54.1243 99.4715 47.1602 97.4556 44.6095C96.6812 43.6297 95.3049 42.5512 95.3049 42.5512Z" fill="#E7EAEE"/>
<path d="M94.7418 60.0897C94.8206 59.8035 95.1164 59.6353 95.4026 59.714C95.6888 59.7927 95.857 60.0885 95.7782 60.3747C95.677 60.7429 94.2534 61.7085 91.1472 63.6233L89.1866 64.8232C85.316 67.1794 82.7333 68.6872 82.4104 68.6872C80.2733 68.6872 78.3476 66.6712 76.9417 63.4902C75.7141 60.7127 75.0768 57.4066 75.3646 55.24C75.4545 54.5638 77.7074 52.8133 81.1861 50.468L81.6843 50.1341C84.7618 48.0839 87.3924 46.5633 88.3441 46.3713C88.6351 46.3126 88.9185 46.5009 88.9772 46.7919C89.0139 46.9739 80.531 54.1243 79.7024 58.8701C79.1413 62.0835 81.2624 67.5605 82.3153 67.61L82.4104 67.6123C82.3249 67.6123 82.3523 67.5923 82.3623 67.5867L82.4592 67.5367C82.5306 67.4993 82.6153 67.4536 82.7129 67.3999L83.1602 67.1498C83.3312 67.0529 83.5219 66.9436 83.7304 66.8232L84.2638 66.5134C85.2822 65.9189 86.5528 65.1619 87.8488 64.3777L89.0815 63.6283C90.5804 62.7125 91.9346 61.8681 92.9525 61.2123L93.4768 60.8717C93.8015 60.6586 94.0759 60.4743 94.2952 60.3215L94.3749 60.2657C94.4959 60.1804 94.5964 60.107 94.6748 60.0468C94.6748 60.0468 94.7633 60.0118 94.7418 60.0897Z" fill="white"/>
<path fill-rule="evenodd" clip-rule="evenodd" d="M95.8074 49.3641C94.5088 46.4805 93.9349 43.838 94.3699 42.2378C93.584 42.4875 92.6016 42.9364 91.6264 43.4958C90.3302 44.2394 89.3015 45.0706 89.2775 45.2511C89.0269 47.1373 89.9886 50.8067 91.5866 54.0781C93.2959 57.5773 95.3296 59.8249 96.9038 59.8249C97.0545 59.8249 97.4858 59.736 97.9181 59.585C98.5331 59.3701 99.1092 59.0571 99.5812 58.6471C99.8159 58.4432 100.059 58.2128 100.312 57.9556L100.618 57.6397C100.798 57.449 100.985 57.2437 101.275 56.9185L101.679 56.4667L101.697 56.4477C99.6717 55.7077 97.5537 53.0992 95.9693 49.7166L95.8074 49.3641ZM88.212 45.1095C88.3792 43.8513 93.09 41.1314 95.2398 40.9557C95.3297 40.8993 95.426 40.8504 95.5286 40.8094C97.3904 40.0654 100.227 43.2522 102.503 47.7362L102.659 48.0474C103.686 50.122 104.387 52.1236 104.578 53.6209C104.806 55.4101 104.288 56.5963 102.929 56.6571C102.893 56.7981 102.801 56.916 102.679 56.987L102.658 56.9977L102.605 57.0507C102.552 57.1054 102.489 57.1733 102.392 57.281L101.724 58.0264C101.482 58.2935 101.31 58.4746 101.078 58.7105C100.806 58.9861 100.543 59.2352 100.286 59.4586C99.2457 60.3624 97.7074 60.8998 96.9038 60.8998C96.4776 60.8998 96.0466 60.8007 95.6147 60.6115C95.1534 61.0927 93.7336 62.029 91.1473 63.6233L89.1867 64.8232C85.3161 67.1795 82.7334 68.6872 82.4105 68.6872C81.6786 68.6872 80.9715 68.4508 80.3016 68.012C80.2954 68.0163 80.2891 68.0205 80.2827 68.0246L80.009 68.2007C79.057 68.8179 77.5346 69.8444 76.1226 70.7965L76.1219 70.7969L76.1217 70.7971L76.1216 70.7971L76.0336 70.8565C76.2164 72.1616 76.632 73.4703 77.2822 74.7836C79.5905 74.0697 81.419 73.8286 81.9466 74.3654C82.4977 74.9262 82.9889 75.9417 83.4545 77.4313C83.5431 77.7146 83.3852 78.016 83.1019 78.1046C82.8186 78.1931 82.5172 78.0353 82.4286 77.7519C82.0259 76.4638 81.6151 75.5968 81.2265 75.1682L81.2105 75.1514L81.1966 75.1522C81.1231 75.1371 81.0128 75.1296 80.8722 75.1323C80.5625 75.1383 80.1392 75.1929 79.6336 75.2931C78.5935 75.4991 77.2789 75.8824 75.9734 76.364C72.9892 77.4648 70.686 78.8289 70.2126 79.8626C70.0741 80.1651 70.0918 80.6079 70.2575 81.2859L70.2882 81.408C70.3131 81.5041 70.3391 81.5993 70.373 81.7198L70.5672 82.4066C70.5752 82.4367 70.5832 82.4674 70.5932 82.5061C70.6678 82.7934 70.4953 83.0868 70.208 83.1614C69.9207 83.236 69.6274 83.0635 69.5528 82.7762L69.4574 82.4286L69.2984 81.8676C69.2802 81.8013 69.2639 81.74 69.2477 81.6778C68.996 80.7068 68.9554 80.0263 69.2353 79.4151C69.7099 78.3788 71.1943 77.3053 73.2614 76.3292L72.8118 75.1679L72.7008 74.8742C72.5306 74.4163 72.3324 73.7954 72.2109 73.3424C70.5961 74.2127 69.4714 74.3583 68.3446 73.7446L68.257 73.6953C68.0341 73.5662 67.8194 73.4175 67.6028 73.2364L61.3038 77.0622C61.3623 77.1884 61.4215 77.3156 61.4813 77.4438C61.7638 78.05 61.2654 78.4791 60.5008 78.813L60.4184 78.8481C59.7612 79.1203 59.1682 79.1827 58.8151 78.7952C57.3503 77.1875 55.7997 73.3417 56.6339 72.4621C56.7941 72.2932 57.217 72.0417 58.0167 71.6223L58.0802 71.5893C58.0966 71.5779 58.1137 71.5673 58.1317 71.5576L64.0198 68.3675C64.0333 68.3602 64.047 68.3535 64.0608 68.3475C63.6972 67.7462 63.2986 67.0768 62.8579 66.33C62.7907 66.2215 62.7659 66.0946 62.7829 65.9727C62.7937 65.8953 62.8213 65.8199 62.8656 65.7525C62.89 65.7152 62.9193 65.6806 62.9531 65.6499C64.1636 64.5019 65.8131 63.3048 67.8822 62.0159L68.1331 61.8605C69.0287 61.3083 70.845 60.2724 72.3881 59.3923L72.3881 59.3923C73.5849 58.7096 74.6173 58.1208 74.9283 57.9241L75.0036 57.8742C75.116 57.7919 75.2498 57.7597 75.3782 57.7735C75.2759 56.8413 75.2671 55.9751 75.3647 55.24C75.4546 54.5638 77.7075 52.8133 81.1862 50.468L81.6844 50.1341C84.6001 48.1917 87.1146 46.7248 88.1803 46.4125C88.1517 45.9313 88.1611 45.4929 88.212 45.1095ZM88.298 47.5024C87.254 47.884 84.6397 49.4361 81.787 51.3593L81.3302 51.6691C80.0464 52.5451 78.8604 53.3992 77.9646 54.0952L77.7157 54.2905C77.316 54.6072 76.9925 54.8802 76.7579 55.0991C76.6403 55.2089 76.5475 55.3029 76.4821 55.3777L76.4364 55.4316C76.4264 55.4419 76.4238 55.438 76.4275 55.4041L76.4303 55.3816C76.4291 55.3902 76.4282 55.3977 76.4275 55.4041L76.4132 55.5195C75.8965 60.0551 79.1761 67.4624 82.3154 67.6101L82.3892 67.6118C82.3954 67.6121 82.4024 67.6123 82.4105 67.6123L82.3892 67.6118C82.33 67.6087 82.3533 67.5918 82.3624 67.5867L82.4593 67.5367C82.5307 67.4993 82.6154 67.4536 82.713 67.4L83.1603 67.1498C83.3313 67.0529 83.522 66.9437 83.7305 66.8233L84.2639 66.5134C85.2823 65.9189 86.5529 65.1619 87.8489 64.3777L89.0816 63.6283C90.5805 62.7125 91.9347 61.8681 92.9525 61.2123L93.4769 60.8717C93.8016 60.6587 94.076 60.4743 94.2953 60.3215L94.375 60.2657C94.4912 60.1838 94.5885 60.1129 94.6655 60.0541C93.2811 59.0382 91.918 57.162 90.7078 54.7266L90.6208 54.5499C89.4545 52.1624 88.6111 49.5769 88.298 47.5024ZM75.5265 58.8156C75.1386 59.0597 73.9947 59.7129 72.7218 60.4397C71.2136 61.3009 69.5242 62.2656 68.6972 62.7754C66.7439 63.9797 65.1686 65.096 63.9991 66.1471L64.3865 66.8005C66.0814 69.6442 67.0628 71.1407 67.8523 71.9862C67.5901 71.3641 67.4542 70.5746 67.4542 69.5845C67.4542 69.5389 67.4599 69.4946 67.4706 69.4523C67.4184 69.2465 67.4918 69.0203 67.6735 68.8869L68.0396 68.6148C68.2588 68.4492 68.6191 68.1738 69.0289 67.8606L69.0299 67.8599L69.0312 67.8589C69.9301 67.1719 71.0659 66.304 71.4711 66.0137C72.7457 65.1007 73.6851 64.5884 74.5405 64.4106C74.9491 64.3257 75.2665 64.5674 75.3586 64.9418L75.3736 65.0099C75.395 65.1213 75.399 65.2309 75.3985 65.4702L75.3982 65.546C75.3938 66.4404 75.4825 66.9565 75.8612 67.5526C76.1204 67.9606 76.5012 68.3329 77.0319 68.6662C77.0874 68.7011 77.1343 68.7445 77.1721 68.7936C78.0282 68.2187 78.83 67.684 79.4215 67.3006C78.4894 66.3982 77.6497 65.0919 76.9418 63.4902C76.2825 61.9983 75.7934 60.354 75.5265 58.8156ZM103.511 53.7569C103.338 52.3971 102.674 50.501 101.696 48.5244C99.6758 44.4449 97.0005 41.3787 95.9274 41.8075C94.89 42.2221 95.1608 45.1729 96.6527 48.6176L96.7875 48.9228C98.4962 52.7168 100.939 55.5228 102.765 55.5838C103.422 55.6058 103.679 55.0689 103.511 53.7569ZM64.6161 69.2562C65.5485 70.7636 66.2297 71.7595 66.8232 72.4523L60.8517 76.0792C60.24 74.7382 59.6928 73.49 59.1619 72.222L64.5319 69.3126C64.5622 69.2961 64.5904 69.2772 64.6161 69.2562ZM76.2514 75.1226C75.672 73.9242 75.2717 72.7224 75.0518 71.5181C74.2801 72.0374 73.6086 72.4869 73.177 72.7674C73.2509 73.1381 73.5258 74.0183 73.7625 74.644L74.2035 75.7794L74.2455 75.8902C74.679 75.7072 75.132 75.5287 75.6014 75.3555L75.9117 75.2426C76.0257 75.2017 76.1389 75.1617 76.2514 75.1226ZM76.2322 69.426C75.6818 69.0444 75.2597 68.6103 74.9539 68.129C74.459 67.3501 74.329 66.6849 74.3234 65.6799L74.3231 65.59L74.2471 65.6184C73.7021 65.83 73.0518 66.2126 72.2348 66.7896L72.097 66.8876C71.708 67.1662 70.6008 68.0123 69.7078 68.6947C69.2113 69.0741 68.781 69.403 68.577 69.5556L68.5291 69.5911C68.5302 71.3792 68.9765 72.1996 69.8065 72.5976L69.8729 72.6282C70.0708 72.7158 70.212 72.7598 70.6154 72.8702L70.6242 72.8727L70.6391 72.8773C71.0577 72.7366 71.5375 72.5016 72.1104 72.1655L72.3239 72.0374C72.7971 71.7425 74.0671 70.886 75.4642 69.9438L76.2322 69.426ZM58.212 72.736L58.2944 72.9321C58.8652 74.2856 59.4583 75.6259 60.1316 77.0877L60.3933 77.6549C60.3075 77.7125 60.1947 77.7737 60.0706 77.8279C59.8924 77.9058 59.7115 77.9604 59.5755 77.9787L59.5322 77.983L59.4668 77.9046C58.958 77.2782 58.3675 76.2139 57.9408 75.1556C57.7135 74.592 57.5516 74.0749 57.4787 73.6777C57.4489 73.5159 57.4352 73.3799 57.4364 73.2768L57.4395 73.2088C57.4406 73.1923 57.4406 73.1837 57.4365 73.1825L57.4526 73.1716C57.5435 73.1089 57.7756 72.9731 58.1204 72.7857L58.212 72.736ZM65.6258 71.552C65.4179 71.3401 65.0776 71.3368 64.8658 71.5447C64.493 71.9103 63.9707 72.2508 63.0584 72.7573L62.1301 73.2725C61.8848 73.4122 61.6839 73.5327 61.5021 73.6507C61.3501 73.7493 61.2143 73.8444 61.0922 73.9388C60.8573 74.1202 60.8141 74.4578 60.9956 74.6926C61.177 74.9275 61.5146 74.9708 61.7494 74.7893C61.8464 74.7144 61.9585 74.6359 62.0871 74.5524C62.2058 74.4754 62.3363 74.3956 62.4873 74.3073L62.7832 74.1379L63.7263 73.6155C64.6324 73.1069 65.1783 72.7438 65.6185 72.312C65.8304 72.1042 65.8336 71.7639 65.6258 71.552Z" fill="#00160A"/>
<path d="M53.6038 126.13C56.2914 141.115 66.3646 152.38 79.2185 155.035C81.5781 155.523 85.6637 155.587 89.8945 155.04C95.3454 154.334 100.65 152.716 105.316 150.093C118.132 143.205 127.858 129.147 129.118 116.84C130.225 106.03 126.096 96.0441 118.62 88.9199C118.62 88.9199 95.1346 100.455 83.6062 107.011C73.5744 112.717 53.6038 126.13 53.6038 126.13Z" fill="white"/>
<path d="M108.297 81.4454C103.48 79.0687 97.4444 77.1913 91.5262 76.8887C69.8208 75.7789 52.7498 93.1186 52.5718 115.484C52.5718 115.484 76.7974 100.053 89.3831 92.6082C95.6446 88.9043 108.297 81.4454 108.297 81.4454Z" fill="white"/>
<path fill-rule="evenodd" clip-rule="evenodd" d="M152.943 70.0472C152.87 73.7839 148.915 80.0033 142.559 87.0413C137.955 92.1395 132.597 97.0675 128.105 100.388L127.825 100.593L128.011 101.418C129.103 106.206 130.529 111.411 129.991 116.66C128.683 129.399 118.718 143.771 105.551 150.833C100.748 153.527 95.2891 155.189 89.6895 155.912L89.1556 155.978C84.9803 156.47 80.9849 156.388 78.5432 155.885C69.0659 153.931 61.0422 147.306 56.1912 137.718C56.1749 137.685 56.1621 137.652 56.1528 137.619C55.5141 137.983 54.6549 138.39 54.2625 138.524L53.1874 138.887C41.6012 142.784 30.1148 146.044 25.4225 144.009C23.6362 143.235 23.0256 141.745 23.7727 139.743C24.4987 137.798 26.5117 135.292 29.889 132.172L30.0746 132.002C33.2748 129.068 40.3817 123.707 51.3952 115.92L51.398 115.777C51.9354 92.7011 69.8598 75.1097 92.3903 76.5457C99.2816 76.9849 104.77 79.4339 107.511 80.9376L108.716 80.2908C120.022 74.2454 129.094 69.9959 136.016 67.4524C147.398 63.2695 153.028 65.2252 152.943 70.0472ZM136.386 69.9311C123.658 74.6084 103.543 85.1276 75.5365 102.049L74.6854 102.563C52.8775 115.765 38.4367 125.794 30.8009 132.794L30.4246 133.142L30.0677 133.476C24.3357 138.892 23.3197 141.926 25.8501 143.023C30.1819 144.902 41.8145 141.735 53.2064 137.998L54.2625 137.65C55.2784 137.313 55.9522 137.12 56.3692 137.031C56.3873 137.018 56.4072 137.006 56.4281 136.996C56.5706 136.923 56.7301 136.921 56.8678 136.975C56.8977 136.981 56.9171 136.99 56.9273 137.003C57.0202 137.053 57.0991 137.131 57.1503 137.233C61.8595 146.54 69.6194 152.213 78.7602 154.097C81.133 154.586 85.1362 154.658 89.3017 154.143L89.5518 154.111C95.0225 153.405 100.351 152.518 105.034 149.891C117.901 142.99 127.651 128.928 128.921 116.55C129.464 111.26 128.771 106.067 126.929 101.234C126.777 101.341 126.626 101.445 126.477 101.547C126.194 101.74 126.299 101.427 126.793 100.61C126.819 100.503 126.878 100.406 126.963 100.333L127.115 100.092C127.168 100.008 127.224 99.9206 127.283 99.8297L127.92 99.2924C133.924 94.2145 138.538 89.8907 141.762 86.3209L142.13 85.9112C148.095 79.2359 151.803 73.3394 151.864 70.0274C151.931 66.3941 147.138 65.9804 136.386 69.9311ZM82.4176 137.9C83.8597 142.307 81.6782 145.142 77.8379 145.289C74.2896 145.424 71.0585 143.188 71.2232 140.011C71.3655 137.265 73.2457 134.329 75.5605 133.251C78.36 131.948 80.9875 133.529 82.4176 137.9ZM76.1277 134.469C74.2753 135.332 72.6822 137.819 72.565 140.08C72.4483 142.332 74.9374 144.055 77.7867 143.946C80.7655 143.832 82.2947 141.845 81.1406 138.318C79.9389 134.645 78.1118 133.545 76.1277 134.469ZM111.737 128.919C113.577 132.396 113.095 135.811 110.266 137.342L110.187 137.384L110.146 137.425C106.351 141.182 101.612 141.638 98.5209 138.915L98.415 138.819C94.8546 135.558 95.7029 129.955 101.368 125.562C105.014 122.735 109.468 124.631 111.737 128.919ZM102.074 126.472C96.9306 130.46 96.2077 135.236 99.1929 137.97C101.334 139.932 104.497 140.04 107.452 138.136L107.51 138.098L107.488 138.094C107.284 138.039 107.119 137.874 107.073 137.659L107.064 137.605C107.026 137.289 107.252 137.002 107.568 136.965C108.29 136.879 108.917 136.705 109.449 136.455L109.521 136.42L109.609 136.329C109.956 135.964 110.295 135.567 110.623 135.137L110.732 134.993C110.855 134.828 111.049 134.748 111.24 134.764L111.255 134.765L111.263 134.751C111.953 133.387 111.789 131.54 110.779 129.573L110.719 129.458C108.746 125.729 105.057 124.159 102.074 126.472ZM136.323 85.1444C136.027 86.196 135.126 87.6389 133.745 89.3477C131.338 92.3266 127.722 95.7938 124.561 98.1647L125.263 97.3937C125.256 97.3875 125.25 97.3793 125.245 97.3699L125.003 96.9255C123.421 94.0385 121.659 91.1907 118.811 88.8692C111.44 91.9085 102.988 96.0628 95.2879 100.407L92.7638 101.833C74.1769 112.362 64.3979 118.666 53.9407 126.415C54.3355 128.192 54.8327 129.927 55.4284 131.607C55.5219 131.871 54.3006 132.858 54.077 132.736C51.9909 134.134 48.7243 135.149 46.8645 135.202C45.052 135.254 44.0049 134.52 44.5443 133.057C44.9956 131.833 46.6955 130.088 49.7548 127.748L50.1035 127.484L50.8087 126.954C62.3224 118.334 73.7206 111.339 94.7597 99.4704L95.6403 98.9763C110.07 90.9216 126.78 83.6649 134.434 82.9953C136.007 82.8577 136.721 83.7283 136.323 85.1444ZM52.5406 127.458L50.1282 129.278C47.9763 130.91 46.4248 132.116 45.5867 132.891L45.5252 132.948C44.5023 133.907 45.6601 134.161 46.834 134.128C48.6122 134.077 51.3363 132.729 53.642 131.502C53.2159 130.182 52.8482 128.832 52.5406 127.458ZM90.2741 121.622C90.5618 121.695 90.7358 121.987 90.6627 122.275C90.5897 122.563 90.2973 122.737 90.0096 122.664C88.5643 122.297 87.7106 122.438 87.4336 122.827C87.2498 123.085 87.3516 123.525 87.6952 123.806C87.9638 124.026 88.3213 124.131 88.5673 124.077C88.7812 124.031 88.901 123.866 88.901 123.453C88.901 123.156 89.1417 122.916 89.4385 122.916C89.7353 122.916 89.9759 123.156 89.9759 123.453C89.9759 124.351 89.5269 124.969 88.7959 125.128C88.2082 125.256 87.5235 125.055 87.0147 124.638C86.2633 124.024 86.0179 122.962 86.5578 122.204C87.1497 121.372 88.4467 121.158 90.2741 121.622ZM66.6655 119.649C67.4944 119.897 67.8514 120.534 67.964 121.488L67.9751 121.592L67.9888 121.749C67.9907 121.775 67.9926 121.802 67.9944 121.831L68.0226 122.376L68.031 122.499C68.0354 122.553 68.0402 122.598 68.0458 122.637L68.0601 122.719L68.0688 122.755L68.0838 122.768C68.2497 122.931 68.2937 123.185 68.1865 123.396L68.159 123.443C67.9981 123.693 67.6655 123.765 67.4161 123.604C67.0728 123.382 66.9948 123.154 66.9532 122.501L66.9191 121.861C66.9151 121.803 66.9109 121.753 66.9053 121.696C66.8442 121.07 66.6916 120.779 66.3571 120.678C65.4183 120.397 64.8795 120.684 64.7089 121.312C64.5569 121.871 64.7768 122.459 65.162 122.622L65.2596 122.658C65.5113 122.766 65.6447 123.049 65.5598 123.315C65.4696 123.598 65.1673 123.754 64.8845 123.664C63.861 123.338 63.3747 122.122 63.6717 121.03C64.0031 119.811 65.1557 119.196 66.6655 119.649ZM105.441 111.419C106.929 113.512 106.652 116.174 104.264 117.379C103.999 117.512 103.676 117.406 103.542 117.141C103.409 116.876 103.515 116.553 103.78 116.419C105.509 115.547 105.706 113.647 104.565 112.042C103.456 110.483 101.912 110.311 100.851 111.996C99.726 113.783 99.8077 114.831 100.617 115.303C101.26 115.678 102.296 115.6 102.58 115.293L102.608 115.259C102.78 115.018 103.115 114.961 103.357 115.133C103.599 115.305 103.656 115.641 103.483 115.883C102.886 116.722 101.181 116.876 100.076 116.232C98.6616 115.407 98.5262 113.671 99.9412 111.424C101.456 109.018 103.928 109.292 105.441 111.419ZM83.1579 108.338C83.4372 108.338 83.6668 108.551 83.6928 108.823L83.6953 108.875C83.6953 108.97 83.7832 109.075 84.0987 109.307L84.397 109.521C84.7224 109.758 84.8793 109.905 85.0275 110.14C85.3664 110.675 85.5585 111.221 85.5585 111.862C85.5585 113.505 83.0909 115.739 80.3975 116.733C77.1687 117.925 74.5234 117.041 73.8035 113.728C73.7405 113.438 73.9245 113.152 74.2146 113.089C74.5046 113.026 74.7909 113.21 74.8539 113.5C75.4125 116.071 77.3414 116.715 80.0253 115.725C82.3429 114.869 84.4836 112.931 84.4836 111.862C84.4836 111.449 84.3577 111.092 84.119 110.714L84.0867 110.669C84.0319 110.6 83.9464 110.525 83.7923 110.411L83.4378 110.155C82.8486 109.721 82.6204 109.428 82.6204 108.875C82.6204 108.578 82.861 108.338 83.1579 108.338ZM85.6807 78.5485L85.3413 78.5867C67.0016 80.7922 53.2434 95.4607 52.493 115.145L54.4609 113.76C60.109 109.796 66.6649 105.267 74.1288 100.174L75.5832 99.2951C79.9251 96.6755 84.0765 94.2104 88.0396 91.8977C87.9673 91.7709 87.947 91.6152 87.996 91.4655C88.2731 90.6197 88.5292 90.0515 88.9984 89.4822C90.4668 87.7008 92.4787 86.8307 93.904 87.9492C94.0443 88.0593 94.115 88.2253 94.1093 88.391L95.3755 87.6685C99.3625 85.3989 103.135 83.3027 106.696 81.3771L105.305 80.9815C103.243 80.4009 100.677 79.7125 98.121 79.1824C98.1443 80.8832 96.8712 82.2413 94.7561 83.1754C92.9582 83.9695 90.6152 84.3968 88.9492 84.2974C85.8326 84.1117 84.0784 81.3781 85.6807 78.5485ZM117.852 101.889C119.167 105.482 118.082 108.75 114.798 108.728C110.119 108.698 105.55 104.612 106.289 100.952C106.618 99.3195 107.845 97.8753 109.98 97.1544C113.389 96.0033 116.513 98.231 117.852 101.889ZM110.324 98.1728C108.56 98.7685 107.597 99.9013 107.342 101.165C106.756 104.07 110.734 107.627 114.805 107.653C117.137 107.669 117.939 105.254 116.842 102.258C115.682 99.0885 113.089 97.2392 110.324 98.1728ZM70.804 85.4496L70.8423 85.505L71.101 85.9164C71.2277 86.1253 71.3412 86.3301 71.4492 86.551C72.6395 88.9848 72.6088 92.1752 70.5944 96.6039C69.6818 98.6102 67.3571 101.307 65.3269 102.916C62.7346 104.97 60.7992 105.437 58.489 105.183L57.8036 105.102L57.72 105.095C57.6741 105.091 57.6449 105.091 57.6127 105.092L57.5657 105.094C57.5299 105.096 57.5175 105.094 57.5155 105.089L57.5153 105.086L57.498 105.114C57.3423 105.337 57.0394 105.411 56.7962 105.275C56.5369 105.131 56.4436 104.804 56.5878 104.545C56.781 104.197 57.1039 104.04 57.5148 104.021C57.6236 104.015 57.7387 104.019 57.8758 104.03L58.0361 104.046L58.4794 104.1C60.5837 104.355 62.2578 103.976 64.6593 102.073C66.5662 100.562 68.7825 97.9912 69.6159 96.1589C71.501 92.0145 71.5285 89.1598 70.4836 87.0233C70.414 86.881 70.3415 86.7459 70.2628 86.6101L70.1503 86.4221L69.9249 86.0658C69.7672 85.8143 69.8432 85.4826 70.0947 85.3249C70.3305 85.1771 70.6367 85.2347 70.804 85.4496ZM134.528 84.0661C131.092 84.3667 125.706 86.0639 119.497 88.5884L119.678 88.749C121.406 90.2994 124.893 93.9758 125.984 96.5982L127.071 95.3929C129.753 92.4095 131.699 90.1693 132.909 88.6721L133.154 88.3651C134.31 86.8975 135.058 85.6713 135.288 84.8532L135.321 84.729C135.464 84.1384 135.298 83.9987 134.528 84.0661ZM83.0658 85.8121C84.4034 86.4588 84.9463 87.8984 84.0663 89.2038C83.9004 89.4499 83.5664 89.515 83.3203 89.349C83.0741 89.1831 83.0091 88.8491 83.175 88.603C83.6591 87.8849 83.386 87.1608 82.5979 86.7798C81.768 86.3785 80.8587 86.6093 80.3894 87.4852C79.957 88.2923 79.9273 89.385 80.2725 90.1007C80.5756 90.729 81.0168 90.8494 81.6899 90.3427C81.9271 90.1642 82.264 90.2117 82.4425 90.4489C82.621 90.686 82.5735 91.023 82.3364 91.2015C81.1098 92.1248 79.8957 91.7935 79.3044 90.5678C78.8088 89.5404 78.8483 88.0855 79.4419 86.9776C80.1992 85.5642 81.7429 85.1724 83.0658 85.8121ZM89.8278 90.1659C89.5772 90.4699 89.3981 90.7907 89.2322 91.2024C90.6172 90.3978 91.9786 89.6117 93.3166 88.8444L93.2778 88.8216L93.2404 88.7948C92.4197 88.1508 90.9731 88.7764 89.8278 90.1659ZM87.5358 78.3841L87.0658 78.4171L87.0343 78.4568C85.1764 80.8047 85.892 82.7105 88.4293 82.9811C90.2515 83.1755 95.0889 81.8235 95.6563 81.349C96.209 80.8869 96.908 79.824 97.0157 78.963C95.3739 78.6543 93.768 78.4274 92.3354 78.3541C90.8715 78.2793 89.4279 78.2811 88.0082 78.3563L87.5358 78.3841Z" fill="#00160A"/>
<path d="M136.06 70.0643C147.443 65.8814 147.182 67.1225 136.431 71.0732C123.703 75.7505 75.6578 105.058 75.6578 105.058C53.8499 118.259 52.2185 116.221 73.3562 103.375L74.6592 102.585C74.9046 102.436 98.9703 87.2474 116.167 79.1214C118.102 78.207 134.764 70.5405 136.06 70.0643Z" fill="white"/>
<path fill-rule="evenodd" clip-rule="evenodd" d="M155.715 49.2404C152.187 49.0601 149.434 51.801 149.406 55.3872C149.382 58.392 151.106 60.9432 153.576 61.4524C154.226 61.5866 156.103 61.5866 157.731 60.6733L157.866 60.599C159.919 59.4367 161.315 57.2254 161.502 55.4064C161.833 52.1813 159.242 49.4207 155.715 49.2404ZM150.174 55.3934C150.174 55.3702 150.174 55.3471 150.174 55.324C150.196 55.317 150.218 55.3078 150.239 55.2965C153.004 53.8068 154.712 52.6716 155.393 51.8519C155.843 51.3107 156.063 50.7003 156.045 50.037C156.509 50.0883 156.952 50.1902 157.367 50.3361C157.364 50.356 157.363 50.3763 157.364 50.397C157.398 51.3515 157.143 52.1146 156.602 52.7087C155.981 53.3915 155.228 54.0412 154.371 54.6539C153.456 55.309 152.473 55.8874 151.49 56.3826C151.261 56.4982 151.042 56.6035 150.837 56.6985L150.541 56.8331C150.498 56.8519 150.459 56.8692 150.423 56.885L150.334 56.9221C150.225 56.438 150.169 55.925 150.174 55.3934ZM150.55 57.6643C150.793 58.3385 151.145 58.936 151.581 59.4226L151.811 59.2906C155.419 57.2013 157.66 55.56 158.508 54.4022C159.365 53.2315 159.671 52.3326 159.479 51.7214C159.474 51.707 159.471 51.6926 159.468 51.6781C159.09 51.2816 158.641 50.9407 158.134 50.6717C158.112 51.6864 157.791 52.5433 157.17 53.2255C156.509 53.9515 155.716 54.636 154.818 55.2783C153.868 55.9584 152.851 56.5565 151.835 57.0683C151.539 57.2177 151.26 57.3507 151.003 57.4671L150.704 57.5997L150.55 57.6643ZM153.424 60.6232C152.971 60.4877 152.548 60.2652 152.168 59.9708C155.883 57.8221 158.195 56.129 159.127 54.8558C159.705 54.066 160.075 53.3558 160.225 52.722C160.412 53.0709 160.554 53.443 160.645 53.8317C160.625 53.8713 160.612 53.9149 160.607 53.9613C160.514 54.8588 160.051 55.7496 159.205 56.6368C158.394 57.4882 156.642 58.7167 153.965 60.305L153.424 60.6232ZM154.722 60.7474C155.546 60.6951 156.554 60.4534 157.368 59.9967C158.883 59.1844 160.099 57.6546 160.559 56.1804C160.337 56.5133 160.071 56.8421 159.761 57.1666C158.927 58.0409 157.252 59.2295 154.722 60.7474ZM150.397 54.3366L150.26 54.4109C150.696 51.8741 152.723 50.0537 155.275 50.001C155.302 50.4995 155.147 50.9467 154.803 51.361C154.246 52.0307 152.768 53.0331 150.397 54.3366Z" fill="#00160A"/>
<path fill-rule="evenodd" clip-rule="evenodd" d="M183.429 41.8841C183.501 41.8924 183.551 41.9571 183.542 42.0283C183.542 42.133 183.475 42.1897 183.384 42.2265C183.302 42.2592 183.172 42.2467 183.096 42.257C182.264 42.3211 181.611 41.7094 181.324 40.9209C181.047 40.1635 181.121 39.2578 181.622 38.6992C181.68 38.6334 181.78 38.6268 181.846 38.6845C181.912 38.7422 182.286 38.8425 182.228 38.9083C181.815 39.3908 181.535 39.6836 181.925 40.8289C182.315 41.9742 183.376 41.878 183.429 41.8841Z" fill="#E7EAEE"/>
<path fill-rule="evenodd" clip-rule="evenodd" d="M51.0574 50.0841C50.8389 49.9341 50.5402 49.9896 50.3902 50.208C50.2402 50.4265 50.2957 50.7252 50.5142 50.8753C50.7542 51.0401 50.9663 51.1922 51.1535 51.3335C50.9519 51.494 50.7505 51.6778 50.5412 51.887L50.1168 52.318C49.9303 52.5063 49.9316 52.8101 50.1198 52.9967C50.3081 53.1832 50.6119 53.1819 50.7985 52.9937L51.3076 52.479C51.5148 52.2772 51.709 52.1084 51.9044 51.9682C52.3383 52.3983 52.4704 52.7137 52.4775 53.0272L52.4775 53.1077L52.48 53.1567C52.5045 53.3987 52.7089 53.5875 52.9574 53.5875C53.2224 53.5875 53.4372 53.3727 53.4372 53.1077L53.4371 53.0133C53.4282 52.5245 53.2557 52.0595 52.7912 51.5282C53.098 51.4368 53.4437 51.3857 53.8629 51.3638C54.1276 51.3499 54.3309 51.1242 54.3171 50.8595C54.3033 50.5949 54.0775 50.3915 53.8128 50.4053C53.085 50.4434 52.5195 50.5647 52.0156 50.7951C51.8052 50.6232 51.5669 50.4427 51.2976 50.2517L51.0574 50.0841Z" fill="#00160A"/>
<path fill-rule="evenodd" clip-rule="evenodd" d="M122.96 155.234L123.293 155.235C125.154 155.252 126.608 155.42 129.346 155.86C129.66 155.91 129.873 156.205 129.823 156.519C129.773 156.833 129.477 157.047 129.163 156.997L128.266 156.855C126 156.508 124.695 156.385 122.96 156.385C116.942 156.385 113.101 160.152 113.751 165.93C113.786 166.246 113.559 166.531 113.243 166.567C112.927 166.602 112.642 166.375 112.606 166.059C111.875 159.561 116.288 155.234 122.96 155.234ZM127.621 157.559L127.565 157.509C127.511 157.463 127.427 157.469 127.382 157.524C127.334 157.578 127.341 157.66 127.395 157.707L127.453 157.756C127.508 157.803 127.589 157.796 127.637 157.742C127.682 157.687 127.677 157.605 127.621 157.559ZM117.186 158.763C116.98 158.597 116.678 158.63 116.512 158.836C115.841 159.67 115.353 160.483 115.048 161.277C114.751 162.048 114.65 163.345 114.727 165.199L114.746 165.59C114.76 165.855 114.986 166.058 115.25 166.044C115.515 166.03 115.718 165.804 115.704 165.54C115.602 163.603 115.689 162.284 115.944 161.621C116.21 160.927 116.648 160.198 117.26 159.437C117.426 159.231 117.393 158.929 117.186 158.763ZM122.423 157.175C122.659 157.053 122.948 157.145 123.07 157.381C123.192 157.616 123.1 157.906 122.865 158.027C121.89 158.532 121.146 159.379 120.627 160.586C120.07 161.881 119.614 163.036 119.26 164.052C119.173 164.302 118.899 164.434 118.649 164.347C118.399 164.26 118.267 163.986 118.354 163.736C118.716 162.697 119.18 161.521 119.745 160.206C120.348 158.804 121.242 157.787 122.423 157.175ZM125.213 157.15C125.038 156.951 124.735 156.931 124.536 157.105C123.735 157.807 123.119 158.445 122.689 159.024C122.261 159.599 121.76 160.458 121.181 161.608C121.061 161.845 121.157 162.133 121.393 162.253C121.63 162.372 121.918 162.277 122.038 162.04C122.595 160.936 123.07 160.119 123.459 159.597C123.844 159.079 124.414 158.488 125.168 157.827C125.368 157.653 125.388 157.349 125.213 157.15ZM123.461 162.569C123.262 162.744 122.958 162.724 122.784 162.524C122.609 162.325 122.629 162.022 122.829 161.847C123.582 161.187 124.153 160.595 124.538 160.077C124.927 159.555 125.402 158.739 125.959 157.634C126.078 157.398 126.367 157.302 126.603 157.422C126.84 157.541 126.935 157.83 126.816 158.066C126.236 159.216 125.736 160.076 125.308 160.65C124.877 161.229 124.262 161.867 123.461 162.569ZM119.828 157.567C119.61 157.416 119.311 157.471 119.16 157.689C118.087 159.242 117.402 160.403 117.099 161.192C116.795 161.983 116.585 163.05 116.464 164.398C116.44 164.662 116.634 164.895 116.898 164.919C117.162 164.943 117.396 164.748 117.419 164.484C117.534 163.217 117.728 162.232 117.995 161.536C118.245 160.887 118.826 159.885 119.734 158.549L119.95 158.234C120.101 158.016 120.046 157.717 119.828 157.567Z" fill="#00160A"/>
<path fill-rule="evenodd" clip-rule="evenodd" d="M110.718 154.737L111.049 155.471L111.803 155.688C111.843 155.699 111.867 155.742 111.855 155.783C111.852 155.795 111.845 155.807 111.836 155.816L111.263 156.386L111.295 157.207C111.297 157.249 111.264 157.285 111.221 157.286C111.207 157.287 111.193 157.283 111.18 157.276L110.532 156.907C110.512 156.896 110.487 156.894 110.466 156.902L109.772 157.178C109.733 157.194 109.688 157.174 109.672 157.135C109.667 157.122 109.666 157.107 109.668 157.093L109.814 156.285L109.326 155.641C109.301 155.607 109.307 155.559 109.341 155.533C109.352 155.525 109.364 155.52 109.377 155.518L110.153 155.409L110.583 154.727C110.606 154.691 110.653 154.681 110.689 154.703C110.702 154.711 110.712 154.723 110.718 154.737Z" fill="#00160A"/>
<path fill-rule="evenodd" clip-rule="evenodd" d="M137.42 51.8592C137.597 52.0158 137.817 52.2982 138.012 52.6039L138.262 52.4926L138.558 52.3657C138.618 52.3385 138.656 52.3173 138.668 52.3C138.702 52.2364 138.781 52.2122 138.845 52.246C138.907 52.2796 138.933 52.3584 138.899 52.4218C138.875 52.4821 138.709 52.6711 138.4 52.8561C138.344 52.8896 138.282 52.9208 138.216 52.9512C138.33 53.1643 138.419 53.3701 138.461 53.5352C138.525 53.7786 138.474 53.9511 138.39 54.0118C138.309 54.0717 138.103 54.0829 137.79 53.8233C137.733 53.7794 137.724 53.6976 137.767 53.6407C137.811 53.584 137.893 53.5735 137.95 53.6173C138.01 53.6612 138.07 53.686 138.118 53.704L138.095 53.6108C138.085 53.5775 138.074 53.5428 138.058 53.5089C138.002 53.3863 137.931 53.2463 137.851 53.1026C137.606 53.195 137.328 53.2788 137.027 53.3191C136.881 53.3388 136.731 53.3426 136.576 53.3414C136.487 53.3472 136.41 53.2795 136.404 53.1902C136.398 53.101 136.466 53.0237 136.555 53.0178C136.917 52.9829 137.251 52.8916 137.546 52.7889L137.643 52.754C137.483 52.5045 137.312 52.2778 137.166 52.1499C137.086 52.0796 137.078 51.9573 137.148 51.8772C137.219 51.7967 137.341 51.7887 137.42 51.8592Z" fill="#00160A"/>
<path fill-rule="evenodd" clip-rule="evenodd" d="M26.015 104.524C24.6491 104.614 22.483 104.962 20.7124 105.664C19.1979 106.266 19.1979 122.616 24.3759 123.92C29.524 125.637 35.1532 123.364 34.481 114.614C34.469 114.431 34.3208 113.933 34.151 113.363C33.9023 112.527 33.6071 111.536 33.6249 111.148C33.6947 109.774 33.3337 108.616 32.381 107.889C31.3545 105.712 29.3429 104.31 26.015 104.524ZM25.2737 119.939C22.7396 118.045 22.8286 109.209 25.7207 108.618C27.5206 110.002 29.1636 112 29.7178 115.849C29.0976 117.969 27.7884 119.195 26.6436 120.268C26.5212 120.382 26.4006 120.495 26.2829 120.607C25.9561 120.422 25.6194 120.195 25.2737 119.939Z" fill="white"/>
<path fill-rule="evenodd" clip-rule="evenodd" d="M22.4056 116.76C22.1759 115.386 22.3326 113.847 23.0237 112.204C23.3372 111.46 24.1612 110.854 25.1921 110.447C26.3972 109.971 27.8714 109.735 28.801 109.674C31.0657 109.528 32.4343 110.476 33.1323 111.948C33.7805 112.439 34.0258 113.223 33.9779 114.152C33.9574 114.593 34.5395 116.191 34.5596 116.496C35.0146 122.413 31.1831 123.952 27.6801 122.793C26.3492 123.469 25.0655 123.581 24.0994 122.863C23.2327 122.222 22.5675 120.869 22.4151 118.484C22.3745 117.869 22.3713 117.294 22.4056 116.76ZM28.6191 112.863C26.6091 113.258 26.5251 119.06 28.2802 120.297C28.5197 120.464 28.7529 120.612 28.9794 120.733C29.8278 119.968 30.4604 119.35 30.8193 118.084C31.1783 116.819 29.8656 113.767 28.6191 112.863Z" fill="#FFB61D"/>
<path fill-rule="evenodd" clip-rule="evenodd" d="M80.7566 173.84C80.5381 173.69 80.2394 173.746 80.0894 173.964C79.9394 174.183 79.9949 174.481 80.2134 174.631C80.4534 174.796 80.6656 174.948 80.8527 175.09C80.6511 175.25 80.4497 175.434 80.2404 175.643L79.8161 176.074C79.6295 176.262 79.6308 176.566 79.8191 176.753C80.0073 176.939 80.3111 176.938 80.4977 176.75L81.0068 176.235C81.2141 176.033 81.4083 175.865 81.6036 175.724C82.0375 176.154 82.1696 176.47 82.1767 176.783L82.1767 176.864L82.1792 176.913C82.2038 177.155 82.4081 177.344 82.6566 177.344C82.9216 177.344 83.1364 177.129 83.1364 176.864L83.1364 176.769C83.1274 176.281 82.9549 175.816 82.4905 175.284C82.7973 175.193 83.1429 175.142 83.5621 175.12C83.8268 175.106 84.0301 174.88 84.0163 174.616C84.0025 174.351 83.7767 174.148 83.5121 174.161C82.7843 174.2 82.2187 174.321 81.7148 174.551C81.5045 174.379 81.2661 174.199 80.9968 174.008L80.7566 173.84Z" fill="#00160A"/>
<path fill-rule="evenodd" clip-rule="evenodd" d="M80.7566 173.84C80.5381 173.69 80.2394 173.746 80.0894 173.964C79.9394 174.183 79.9949 174.481 80.2134 174.631C80.4534 174.796 80.6656 174.948 80.8527 175.09C80.6511 175.25 80.4497 175.434 80.2404 175.643L79.8161 176.074C79.6295 176.262 79.6308 176.566 79.8191 176.753C80.0073 176.939 80.3111 176.938 80.4977 176.75L81.0068 176.235C81.2141 176.033 81.4083 175.865 81.6036 175.724C82.0375 176.154 82.1696 176.47 82.1767 176.783L82.1767 176.864L82.1792 176.913C82.2038 177.155 82.4081 177.344 82.6566 177.344C82.9216 177.344 83.1364 177.129 83.1364 176.864L83.1364 176.769C83.1274 176.281 82.9549 175.816 82.4905 175.284C82.7973 175.193 83.1429 175.142 83.5621 175.12C83.8268 175.106 84.0301 174.88 84.0163 174.616C84.0025 174.351 83.7767 174.148 83.5121 174.161C82.7843 174.2 82.2187 174.321 81.7148 174.551C81.5045 174.379 81.2661 174.199 80.9968 174.008L80.7566 173.84Z" fill="#00160A"/>
<path fill-rule="evenodd" clip-rule="evenodd" d="M97.1569 160.694L97.4875 161.429L98.2413 161.645C98.2821 161.657 98.3057 161.699 98.294 161.74C98.2903 161.753 98.2836 161.764 98.2743 161.773L97.7016 162.344L97.7337 163.164C97.7353 163.206 97.7023 163.242 97.66 163.244C97.6456 163.244 97.6314 163.241 97.619 163.234L96.9706 162.864C96.9503 162.853 96.9259 162.851 96.9043 162.86L96.2108 163.135C96.1714 163.151 96.1268 163.132 96.1111 163.092C96.1058 163.079 96.1044 163.064 96.1069 163.05L96.2529 162.242L95.7651 161.598C95.7395 161.564 95.7461 161.516 95.78 161.49C95.7904 161.482 95.8026 161.477 95.8156 161.476L96.5922 161.366L97.0219 160.685C97.0445 160.649 97.0919 160.638 97.1278 160.661C97.1406 160.669 97.1507 160.68 97.1569 160.694Z" fill="#00160A"/>
<path fill-rule="evenodd" clip-rule="evenodd" d="M55.5555 155.645L56.1176 156.222L56.8999 156.168C56.9422 156.165 56.9789 156.197 56.9818 156.239C56.9827 156.252 56.9803 156.265 56.9747 156.277L56.6316 157.008L56.9423 157.769C56.9584 157.808 56.9396 157.853 56.9003 157.869C56.8871 157.874 56.8725 157.876 56.8584 157.873L56.1228 157.748C56.0998 157.744 56.0763 157.751 56.0589 157.766L55.5015 158.262C55.4698 158.291 55.4213 158.288 55.3931 158.256C55.3835 158.245 55.3772 158.232 55.3748 158.218L55.2356 157.409L54.5568 156.97C54.5212 156.947 54.511 156.9 54.534 156.864C54.5411 156.853 54.5509 156.844 54.5624 156.838L55.2548 156.47L55.4254 155.682C55.4344 155.641 55.4753 155.614 55.5167 155.623C55.5315 155.626 55.545 155.634 55.5555 155.645Z" fill="#00160A"/>
<path fill-rule="evenodd" clip-rule="evenodd" d="M46.7784 103.022L47.1091 103.757L47.8629 103.973C47.9037 103.985 47.9272 104.027 47.9155 104.068C47.9119 104.081 47.9052 104.092 47.8959 104.101L47.3232 104.672L47.3553 105.492C47.3569 105.534 47.3239 105.57 47.2816 105.572C47.2672 105.572 47.253 105.569 47.2406 105.562L46.5922 105.192C46.5719 105.181 46.5475 105.179 46.5258 105.188L45.8324 105.463C45.793 105.479 45.7483 105.46 45.7327 105.42C45.7274 105.407 45.7259 105.392 45.7285 105.378L45.8745 104.57L45.3867 103.926C45.3611 103.892 45.3677 103.844 45.4015 103.818C45.412 103.81 45.4242 103.805 45.4372 103.804L46.2138 103.694L46.6435 103.013C46.6661 102.977 46.7135 102.966 46.7494 102.989C46.7621 102.997 46.7722 103.008 46.7784 103.022Z" fill="#00160A"/>
<path fill-rule="evenodd" clip-rule="evenodd" d="M46.7016 103.754L46.842 104.066L47.1622 104.158C47.1795 104.163 47.1895 104.181 47.1845 104.198C47.183 104.204 47.1801 104.208 47.1762 104.212L46.9329 104.455L46.9466 104.803C46.9473 104.821 46.9333 104.836 46.9153 104.837C46.9092 104.837 46.9031 104.836 46.8978 104.833L46.6224 104.676C46.6138 104.671 46.6035 104.67 46.5943 104.674L46.2997 104.791C46.283 104.797 46.264 104.789 46.2574 104.773C46.2551 104.767 46.2545 104.761 46.2556 104.755L46.3176 104.411L46.1104 104.138C46.0995 104.123 46.1023 104.103 46.1167 104.092C46.1211 104.089 46.1263 104.087 46.1318 104.086L46.4617 104.039L46.6442 103.75C46.6538 103.735 46.674 103.73 46.6892 103.74C46.6946 103.743 46.6989 103.748 46.7016 103.754Z" fill="#E7EAEE"/>
<path fill-rule="evenodd" clip-rule="evenodd" d="M7.46814 135.262L7.79881 135.997L8.55262 136.214C8.59338 136.225 8.61693 136.268 8.60524 136.309C8.60163 136.321 8.59487 136.333 8.5856 136.342L8.01289 136.912L8.04497 137.733C8.04663 137.775 8.01362 137.811 7.97125 137.812C7.95692 137.813 7.94272 137.809 7.93026 137.802L7.28188 137.433C7.26162 137.421 7.23721 137.42 7.21554 137.428L6.52209 137.704C6.48268 137.719 6.43804 137.7 6.42239 137.661C6.41709 137.647 6.41564 137.633 6.41819 137.619L6.56415 136.811L6.07636 136.166C6.05076 136.133 6.05742 136.084 6.09123 136.059C6.10165 136.051 6.11392 136.046 6.12687 136.044L6.90345 135.935L7.33317 135.253C7.35579 135.217 7.4032 135.206 7.43907 135.229C7.45183 135.237 7.46195 135.249 7.46814 135.262Z" fill="#00160A"/>
<path fill-rule="evenodd" clip-rule="evenodd" d="M40.6924 69.2787L40.9326 69.4462C41.2022 69.6375 42.2085 70.5859 42.4189 70.758C42.9221 70.527 43.4877 70.4057 44.2156 70.3677C44.4803 70.3539 44.706 70.5572 44.7199 70.8219C44.7337 71.0865 44.5303 71.3123 44.2657 71.3261C43.8463 71.348 43.5006 71.3992 43.1937 71.4907C43.6586 72.0222 43.831 72.487 43.8399 72.9757L43.84 73.07C43.84 73.335 43.6251 73.5499 43.3601 73.5499C43.1117 73.5499 42.9073 73.3611 42.8827 73.1191L42.8803 73.07L42.8803 72.9896C42.8732 72.6761 42.7411 72.3607 42.3072 71.9306C42.1118 72.0708 41.9176 72.2396 41.7104 72.4414L41.2012 72.956C41.0147 73.1442 40.7108 73.1456 40.5226 72.959C40.3344 72.7724 40.333 72.4686 40.5196 72.2804L40.944 71.8494C41.1532 71.6402 41.3546 71.4564 41.5562 71.2959C41.2022 70.4877 39.8752 69.6211 40.0252 69.4026C40.1752 69.1841 40.4739 69.1286 40.6924 69.2787Z" fill="#00160A"/>
<path fill-rule="evenodd" clip-rule="evenodd" d="M133.278 124.621L133.931 125.092L134.692 124.902C134.734 124.892 134.775 124.917 134.785 124.958C134.789 124.971 134.788 124.984 134.785 124.997L134.574 125.777L135.012 126.471C135.035 126.507 135.024 126.555 134.988 126.577C134.976 126.585 134.962 126.589 134.948 126.589L134.202 126.594C134.178 126.594 134.156 126.604 134.142 126.623L133.679 127.208C133.653 127.241 133.604 127.247 133.571 127.221C133.56 127.212 133.551 127.2 133.546 127.186L133.269 126.413L132.524 126.099C132.485 126.083 132.467 126.038 132.483 125.999C132.488 125.987 132.497 125.976 132.507 125.968L133.125 125.485L133.156 124.68C133.158 124.638 133.193 124.605 133.236 124.606C133.251 124.607 133.265 124.612 133.278 124.621Z" fill="#00160A"/>
<path fill-rule="evenodd" clip-rule="evenodd" d="M140.788 94.5458L140.986 95.3269L141.69 95.6709C141.728 95.6895 141.744 95.7354 141.726 95.7736C141.72 95.7853 141.711 95.7954 141.701 95.8029L141.038 96.2649L140.927 97.0785C140.921 97.1205 140.882 97.15 140.84 97.1442C140.826 97.1423 140.813 97.1364 140.802 97.1273L140.227 96.651C140.209 96.6361 140.186 96.6302 140.163 96.6349L139.432 96.7858C139.39 96.7943 139.35 96.7676 139.341 96.7261C139.338 96.712 139.339 96.6975 139.344 96.684L139.628 95.9136L139.26 95.1943C139.241 95.1566 139.256 95.1103 139.293 95.091C139.305 95.085 139.318 95.0822 139.331 95.0826L140.115 95.1098L140.656 94.5131C140.685 94.4817 140.733 94.4793 140.765 94.5078C140.776 94.518 140.784 94.5312 140.788 94.5458Z" fill="#00160A"/>
<path fill-rule="evenodd" clip-rule="evenodd" d="M123.685 63.1099L123.883 63.891L124.588 64.235C124.626 64.2536 124.642 64.2995 124.623 64.3376C124.618 64.3494 124.609 64.3595 124.598 64.367L123.935 64.829L123.824 65.6426C123.819 65.6846 123.78 65.714 123.738 65.7083C123.724 65.7064 123.71 65.7005 123.699 65.6913L123.125 65.2151C123.107 65.2002 123.083 65.1943 123.06 65.199L122.33 65.3498C122.288 65.3584 122.247 65.3317 122.239 65.2902C122.236 65.2761 122.237 65.2616 122.242 65.2481L122.526 64.4777L122.158 63.7584C122.138 63.7207 122.153 63.6744 122.191 63.6551C122.203 63.6491 122.216 63.6462 122.229 63.6467L123.012 63.6739L123.554 63.0772C123.582 63.0458 123.631 63.0434 123.662 63.0719C123.674 63.0821 123.682 63.0953 123.685 63.1099Z" fill="#00160A"/>
<path fill-rule="evenodd" clip-rule="evenodd" d="M174.21 70.7633L174.502 70.7373C174.831 70.7105 175.13 70.6955 175.402 70.6921C175.639 70.1918 175.994 69.7352 176.528 69.2382C176.721 69.0575 177.025 69.0682 177.206 69.262C177.387 69.4559 177.376 69.7595 177.182 69.9402C176.875 70.2266 176.643 70.4881 176.467 70.7554C177.164 70.8637 177.595 71.109 177.916 71.4776L177.977 71.5498C178.147 71.7528 178.121 72.0555 177.918 72.2258C177.727 72.3855 177.449 72.3722 177.275 72.2027L177.242 72.1667L177.19 72.1051C176.983 71.8695 176.679 71.7128 176.07 71.6622C176.011 71.8952 175.97 72.1493 175.941 72.4371L175.882 73.1586C175.86 73.4227 175.628 73.6191 175.364 73.5971C175.1 73.5752 174.904 73.3433 174.926 73.0792L174.974 72.4762C175 72.1815 175.036 71.9113 175.087 71.6588C174.853 71.6707 174.593 71.6905 174.303 71.7186C174.039 71.7441 173.804 71.5509 173.779 71.2871C173.753 71.0233 173.947 70.7888 174.21 70.7633Z" fill="#00160A"/>
<path fill-rule="evenodd" clip-rule="evenodd" d="M135.461 103.888C135.374 104.108 135.184 104.411 134.964 104.699L135.154 104.896L135.374 105.131L135.423 105.178C135.445 105.197 135.461 105.209 135.474 105.212C135.545 105.222 135.595 105.288 135.585 105.36C135.575 105.43 135.509 105.48 135.438 105.47C135.373 105.469 135.139 105.377 134.859 105.15C134.809 105.109 134.758 105.061 134.707 105.009C134.546 105.189 134.383 105.344 134.242 105.44C134.035 105.583 133.856 105.594 133.77 105.536C133.686 105.48 133.605 105.291 133.742 104.908C133.764 104.839 133.837 104.802 133.906 104.824C133.974 104.846 134.012 104.919 133.99 104.988C133.969 105.059 133.967 105.124 133.966 105.175L134.046 105.121C134.074 105.101 134.103 105.079 134.129 105.052C134.225 104.957 134.332 104.843 134.44 104.718C134.269 104.52 134.096 104.287 133.955 104.019C133.886 103.888 133.832 103.749 133.78 103.602C133.744 103.521 133.781 103.425 133.863 103.389C133.945 103.353 134.04 103.39 134.076 103.472C134.233 103.8 134.433 104.082 134.631 104.325L134.696 104.404C134.876 104.168 135.031 103.93 135.101 103.748C135.14 103.65 135.252 103.6 135.351 103.638C135.451 103.678 135.5 103.789 135.461 103.888Z" fill="#E7EAEE"/>
<path fill-rule="evenodd" clip-rule="evenodd" d="M130.776 6.0907C131.068 6.03977 131.347 6.23553 131.398 6.52795C131.449 6.82037 131.253 7.09872 130.96 7.14965C129.57 7.3919 127.896 8.22323 126.45 9.56221C124.572 11.3009 123.187 13.7548 122.503 16.958C121.952 19.5388 122.458 22.9366 123.899 25.7715C125.537 28.9967 128.17 31.1895 131.55 31.8068C135.019 32.4404 137.954 32.0469 141.232 30.8815L141.534 30.7719C141.63 30.7356 141.801 30.6696 142.016 30.5868L142.016 30.5867C142.805 30.2822 144.184 29.75 144.58 29.6303C145.64 29.3098 146.363 29.3366 146.887 29.8952C147.091 30.1117 147.08 30.4518 146.863 30.6549C146.66 30.8453 146.349 30.8477 146.143 30.6689L146.104 30.6308C145.949 30.466 145.629 30.4469 144.986 30.6314L144.892 30.6591C144.542 30.7647 143.265 31.2573 142.468 31.5644L142.468 31.5648L142.467 31.565C142.159 31.6837 141.923 31.7746 141.841 31.8046C138.301 33.097 135.123 33.5522 131.357 32.8642C127.624 32.1824 124.722 29.7661 122.94 26.2583C121.392 23.2098 120.848 19.5621 121.452 16.7336C122.182 13.3149 123.678 10.6635 125.719 8.77351C127.317 7.29402 129.18 6.36861 130.776 6.0907ZM134.411 8.68713C134.702 8.63008 134.984 8.81997 135.042 9.11126C135.099 9.40255 134.909 9.68493 134.617 9.74198C130.261 10.5951 126.758 13.9222 125.742 18.323C125.398 19.8124 125.502 21.0234 125.84 21.4855L125.885 21.5434L125.888 21.5515L125.894 21.5466C126.015 21.4376 126.157 21.159 126.266 20.7272L126.289 20.6323C127.334 16.1061 130.785 12.6026 135.192 11.426C135.479 11.3495 135.774 11.5199 135.85 11.8067C135.927 12.0935 135.756 12.388 135.469 12.4646C131.499 13.5246 128.379 16.6509 127.377 20.7023L127.336 20.8741C126.968 22.4704 125.91 23.2324 125.053 22.2219C124.426 21.4829 124.272 19.9146 124.695 18.0812C125.807 13.2635 129.642 9.62099 134.411 8.68713ZM140.875 14.5862C140.854 14.2902 140.596 14.0673 140.3 14.0884C135.069 14.4616 130.482 17.8591 128.657 22.8736C127.964 24.7764 127.923 26.4685 128.49 27.3315C129.251 28.489 130.447 27.8324 131.044 26.1935L131.106 26.0253C132.72 21.7815 136.503 18.8176 140.93 18.1995C141.224 18.1585 141.429 17.8869 141.388 17.5929C141.347 17.299 141.076 17.0939 140.782 17.1349C135.906 17.8156 131.748 21.1148 130.034 25.8258L129.996 25.9265C129.805 26.4168 129.596 26.7124 129.438 26.7992L129.431 26.8039L129.428 26.8064C129.427 26.8075 129.426 26.8082 129.426 26.8081C129.425 26.808 129.424 26.8064 129.423 26.8029C129.419 26.7949 129.412 26.7768 129.388 26.7412L129.36 26.6945C129.048 26.1414 129.096 24.811 129.667 23.2412C131.346 18.6287 135.565 15.5039 140.377 15.1606C140.673 15.1394 140.896 14.8823 140.875 14.5862ZM143.215 19.8109C143.511 19.7898 143.769 20.0127 143.79 20.3088C143.811 20.6048 143.588 20.862 143.292 20.8831C139.918 21.1238 136.96 23.3147 135.783 26.5486C135.434 27.5073 135.369 28.3269 135.494 28.742L135.509 28.7883L135.533 28.754C135.593 28.663 135.661 28.5323 135.727 28.3627L135.755 28.2877C136.999 24.8718 140.013 22.4796 143.549 21.9861C143.843 21.945 144.114 22.1501 144.155 22.444C144.196 22.738 143.991 23.0096 143.697 23.0506C140.604 23.4824 137.961 25.5465 136.822 28.5042L136.765 28.6553C136.304 29.9221 135.307 30.4693 134.67 29.4993C134.233 28.8347 134.264 27.5799 134.773 26.181C136.096 22.545 139.423 20.0815 143.215 19.8109ZM146.048 24.1412C146.027 23.8451 145.77 23.6223 145.474 23.6434C142.934 23.8246 140.706 25.4745 139.82 27.9095C139.47 28.8695 139.449 29.7432 139.772 30.2351C140.302 31.0417 141.126 30.5897 141.469 29.6473L141.515 29.5235C142.237 27.6796 143.892 26.394 145.826 26.1239C146.12 26.0829 146.325 25.8113 146.284 25.5173C146.243 25.2234 145.972 25.0183 145.678 25.0594L145.542 25.0798C143.459 25.4153 141.662 26.737 140.731 28.6393L140.698 28.707L140.718 28.6299C140.748 28.5176 140.785 28.3995 140.83 28.2771C141.57 26.2441 143.429 24.8669 145.55 24.7155C145.846 24.6944 146.069 24.4373 146.048 24.1412Z" fill="#00160A"/>
<path fill-rule="evenodd" clip-rule="evenodd" d="M143.215 19.8109C143.511 19.7898 143.768 20.0127 143.79 20.3088C143.811 20.6048 143.588 20.862 143.292 20.8831C139.918 21.1238 136.96 23.3147 135.783 26.5486C135.434 27.5073 135.369 28.3269 135.494 28.742L135.509 28.7883L135.533 28.754C135.593 28.663 135.661 28.5322 135.727 28.3627L135.755 28.2877C136.998 24.8718 140.013 22.4796 143.549 21.986C143.842 21.945 144.114 22.1501 144.155 22.444C144.196 22.738 143.991 23.0096 143.697 23.0506C140.604 23.4823 137.961 25.5465 136.822 28.5042L136.765 28.6553C136.304 29.922 135.307 30.4693 134.67 29.4993C134.233 28.8346 134.264 27.5799 134.773 26.181C136.096 22.545 139.422 20.0815 143.215 19.8109Z" fill="#00160A"/>
<path d="M109.744 89.7853C121.011 84.5149 130.432 81.7311 136.297 81.2199C138.093 81.0634 138.908 82.0536 138.453 83.6643C138.115 84.8603 137.086 86.5015 135.51 88.445C132.762 91.8332 129.138 94.7323 125.529 97.4289C131.302 92.1006 132.775 89.8716 134.555 87.6766L134.835 87.3274C136.155 85.6583 137.008 84.2637 137.271 83.3332L137.309 83.1919C137.472 82.5202 137.283 82.3612 136.404 82.4378C130.671 82.9375 121.287 85.7268 110.061 90.99C98.8161 96.2617 98.4946 95.0471 109.744 89.7853Z" fill="white"/>
<path d="M58.212 72.7361L58.2943 72.9322C58.8651 74.2856 59.4583 75.6259 60.1315 77.0878L60.3933 77.6549C60.3075 77.7126 60.1947 77.7738 60.0706 77.828C59.8924 77.9058 59.7115 77.9604 59.5755 77.9787L59.5322 77.9831L59.4667 77.9047C58.9579 77.2783 58.3675 76.214 57.9408 75.1557C57.7135 74.592 57.5516 74.075 57.4786 73.6778C57.4489 73.5159 57.4352 73.38 57.4364 73.2768L57.4395 73.2089C57.4405 73.1924 57.4406 73.1838 57.4365 73.1825L57.4526 73.1717C57.5434 73.109 57.7756 72.9732 58.1204 72.7858L58.212 72.7361Z" fill="white"/>
<path fill-rule="evenodd" clip-rule="evenodd" d="M72.4557 67.833C72.8084 67.4013 73.2657 67.4657 73.8449 67.817L73.9937 67.9109L74.4101 68.1868C74.5265 68.2615 74.577 68.2873 74.6449 68.3144C74.8025 68.3771 74.8794 68.5557 74.8166 68.7133C74.7539 68.8709 74.5753 68.9478 74.4177 68.885L74.3615 68.8619C74.2551 68.8163 74.1747 68.7689 73.9589 68.6258L73.6602 68.4267C73.6109 68.3946 73.5683 68.3677 73.5264 68.3422C73.1799 68.1321 73.0226 68.1099 72.9313 68.2217C72.8738 68.2921 72.888 68.4421 73.0022 68.7498L73.1275 69.0726C73.3766 69.7338 73.3781 70.0294 72.9343 70.2818C72.5524 70.499 72.3565 70.3975 71.8079 69.86L71.6748 69.7281C71.3235 69.3773 71.1393 69.2552 71.0207 69.2803C70.9813 69.2886 70.9353 69.3165 70.8792 69.3764C70.8134 69.4465 70.7947 69.6709 70.8351 70.0689L70.897 70.5888C70.9691 71.2242 70.9401 71.3888 70.6778 71.5644C70.3165 71.8062 69.8358 71.5329 68.9449 70.7328C68.8187 70.6195 68.8083 70.4253 68.9216 70.2991C69.035 70.1729 69.2291 70.1625 69.3553 70.2758C69.7362 70.6179 70.0238 70.8406 70.2246 70.9548L70.2697 70.9793L70.3073 70.9981L70.3081 70.9596L70.3057 70.8676C70.3018 70.7923 70.2924 70.7011 70.2736 70.5463L70.2345 70.2274C70.1598 69.5804 70.1831 69.2206 70.4312 68.9562C70.569 68.8092 70.7237 68.7153 70.8936 68.6794C71.2881 68.5959 71.5683 68.7644 72.0338 69.2193L72.2687 69.4504C72.522 69.694 72.6159 69.7563 72.6307 69.7479C72.6882 69.7151 72.6795 69.6134 72.5239 69.2139L72.4557 69.0409C72.2388 68.4832 72.1974 68.1492 72.4557 67.833Z" fill="#00160A"/>
<path fill-rule="evenodd" clip-rule="evenodd" d="M105.983 17.8453L105.692 17.8713C105.428 17.8968 105.235 18.1314 105.26 18.3952C105.276 18.5547 105.367 18.6884 105.496 18.7635L105.445 18.7995C105.229 18.9524 105.178 19.2519 105.33 19.4683C105.483 19.6847 105.783 19.7362 105.999 19.5832L106.492 19.2341C106.478 19.347 106.466 19.4636 106.455 19.5843L106.407 20.1872C106.385 20.4513 106.581 20.6832 106.845 20.7052C107.11 20.7271 107.341 20.5308 107.363 20.2667L107.423 19.5451C107.438 19.3906 107.457 19.2458 107.48 19.1088C107.649 19.4286 107.683 19.6749 107.647 19.9078L107.633 19.987L107.627 20.0358C107.609 20.2784 107.778 20.4998 108.022 20.5429C108.283 20.589 108.532 20.4147 108.578 20.1537L108.594 20.0608C108.645 19.737 108.622 19.411 108.491 19.0492C108.56 19.0984 108.619 19.1532 108.671 19.2131L108.723 19.2747L108.756 19.3107C108.931 19.4803 109.209 19.4936 109.399 19.3339C109.602 19.1635 109.628 18.8608 109.458 18.6578L109.397 18.5856C109.376 18.5608 109.354 18.5366 109.331 18.513C109.582 18.5277 109.804 18.3452 109.835 18.0925C109.867 17.8294 109.68 17.59 109.417 17.5576C108.965 17.502 108.569 17.4895 108.205 17.5222C108.336 17.3685 108.487 17.2125 108.663 17.0483C108.857 16.8676 108.868 16.5639 108.687 16.3701C108.506 16.1762 108.203 16.1656 108.009 16.3463C107.684 16.6494 107.425 16.9374 107.218 17.2296C107.139 17.1451 107.055 17.0584 106.967 16.9695L106.76 16.7628C106.57 16.5771 106.267 16.5799 106.081 16.769C105.895 16.9581 105.898 17.262 106.087 17.4476C106.219 17.5765 106.34 17.6985 106.451 17.8141C106.303 17.8216 106.147 17.832 105.983 17.8453Z" fill="#00160A"/>
<path fill-rule="evenodd" clip-rule="evenodd" d="M88.9057 21.5145C88.5923 21.1931 88.0847 21.2021 87.772 21.5345C87.4592 21.867 87.4598 22.3971 87.7732 22.7185C88.0705 23.0233 88.3364 23.3059 88.5738 23.5688C88.0714 23.7817 87.5673 24.0575 87.0275 24.3979L86.2086 24.9233C85.849 25.1523 85.7705 25.6106 86.0333 25.9468C86.2961 26.283 86.8006 26.3699 87.1603 26.1409L88.142 25.5143C88.6549 25.2002 89.1173 24.9625 89.582 24.7957C90.288 25.7774 90.4358 26.4067 90.3458 26.9901L90.3214 27.1285L90.3106 27.2137C90.2776 27.6371 90.556 28.0213 90.9642 28.0932C91.3996 28.17 91.8178 27.8626 91.8982 27.4065L91.9267 27.2442C92.0607 26.3979 91.9171 25.5454 91.3107 24.4922C91.7221 24.4859 92.1705 24.5164 92.679 24.5814C93.1218 24.638 93.5193 24.3573 93.5667 23.9544C93.614 23.5515 93.2934 23.179 92.8505 23.1224C91.8796 22.9983 91.0656 22.9841 90.3207 23.0848C90.0143 22.7079 89.6589 22.3056 89.2495 21.8724L88.9057 21.5145Z" fill="#E7EAEE"/>
<path fill-rule="evenodd" clip-rule="evenodd" d="M25.65 101.169L25.9807 101.904L26.7345 102.12C26.7753 102.132 26.7988 102.174 26.7871 102.215C26.7835 102.228 26.7768 102.239 26.7675 102.248L26.1948 102.818L26.2269 103.639C26.2285 103.681 26.1955 103.717 26.1531 103.719C26.1388 103.719 26.1246 103.716 26.1121 103.709L25.4638 103.339C25.4435 103.328 25.4191 103.326 25.3974 103.335L24.704 103.61C24.6646 103.626 24.6199 103.607 24.6043 103.567C24.599 103.554 24.5975 103.539 24.6001 103.525L24.746 102.717L24.2582 102.073C24.2326 102.039 24.2393 101.991 24.2731 101.965C24.2835 101.957 24.2958 101.952 24.3088 101.951L25.0853 101.841L25.5151 101.16C25.5377 101.124 25.5851 101.113 25.621 101.135C25.6337 101.144 25.6438 101.155 25.65 101.169Z" fill="#00160A"/>
<path fill-rule="evenodd" clip-rule="evenodd" d="M30.0592 60.3834L30.3899 61.1182L31.1437 61.3346C31.1844 61.3463 31.208 61.3888 31.1963 61.4296C31.1927 61.4422 31.1859 61.4536 31.1767 61.4628L30.604 62.033L30.636 62.8535C30.6377 62.8958 30.6047 62.9315 30.5623 62.9332C30.548 62.9338 30.5338 62.9303 30.5213 62.9232L29.8729 62.5539C29.8527 62.5424 29.8283 62.5407 29.8066 62.5493L29.1132 62.8247C29.0737 62.8404 29.0291 62.8211 29.0135 62.7817C29.0082 62.7684 29.0067 62.7538 29.0093 62.7397L29.1552 61.9317L28.6674 61.2874C28.6418 61.2535 28.6485 61.2054 28.6823 61.1798C28.6927 61.1719 28.705 61.1668 28.7179 61.165L29.4945 61.0556L29.9242 60.374C29.9469 60.3381 29.9943 60.3274 30.0301 60.35C30.0429 60.358 30.053 60.3697 30.0592 60.3834Z" fill="#00160A"/>
<path d="M40.047 125.319C40.2933 125.14 40.638 125.195 40.8168 125.441C40.9957 125.687 33.1982 132.038 30.1733 134.949L29.8217 135.29C28.094 136.98 26.8201 138.444 26.1021 139.602C25.3412 140.828 25.2924 141.494 25.7836 141.766C27.6473 142.799 30.3269 143.302 34.1647 142.666L34.559 142.599C36.0198 142.343 47.0086 139.947 46.8346 140.01L46.7671 140.031C46.4206 140.123 41.9462 141.67 40.4018 142.063L40.2152 142.11C37.8543 142.704 36.0068 143.111 34.3448 143.387C30.2836 144.059 27.3821 143.912 25.2493 142.73C24.0186 142.048 24.1166 140.711 25.1654 139.02C25.9904 137.691 27.4414 136.048 29.409 134.155C32.4743 131.205 36.7858 127.687 40.047 125.319Z" fill="white"/>
</svg>
