<svg width="35" height="35" viewBox="0 0 35 35" fill="none" xmlns="http://www.w3.org/2000/svg">
<circle cx="17.5" cy="17.5" r="9.5" fill="white"/>
<path d="M31.4415 15.6626L29.4582 13.3584C29.079 12.9209 28.7728 12.1042 28.7728 11.5209V9.04173C28.7728 7.4959 27.504 6.22715 25.9582 6.22715H23.479C22.9103 6.22715 22.079 5.9209 21.6415 5.54173L19.3374 3.5584C18.3311 2.69798 16.6832 2.69798 15.6624 3.5584L13.3728 5.55631C12.9353 5.9209 12.104 6.22715 11.5353 6.22715H9.01237C7.46654 6.22715 6.19779 7.4959 6.19779 9.04173V11.5355C6.19779 12.1042 5.89154 12.9209 5.52695 13.3584L3.5582 15.6771C2.71237 16.6834 2.71237 18.3167 3.5582 19.323L5.52695 21.6417C5.89154 22.0792 6.19779 22.8959 6.19779 23.4646V25.9584C6.19779 27.5042 7.46654 28.773 9.01237 28.773H11.5353C12.104 28.773 12.9353 29.0792 13.3728 29.4584L15.677 31.4417C16.6832 32.3021 18.3311 32.3021 19.352 31.4417L21.6561 29.4584C22.0936 29.0792 22.9103 28.773 23.4936 28.773H25.9728C27.5186 28.773 28.7874 27.5042 28.7874 25.9584V23.4792C28.7874 22.9105 29.0936 22.0792 29.4728 21.6417L31.4561 19.3376C32.302 18.3313 32.302 16.6688 31.4415 15.6626ZM23.5665 14.7438L16.5228 21.7876C16.3186 21.9917 16.0415 22.1084 15.7499 22.1084C15.4582 22.1084 15.1811 21.9917 14.977 21.7876L11.4478 18.2584C11.0249 17.8355 11.0249 17.1355 11.4478 16.7126C11.8707 16.2896 12.5707 16.2896 12.9936 16.7126L15.7499 19.4688L22.0207 13.198C22.4436 12.7751 23.1436 12.7751 23.5665 13.198C23.9895 13.6209 23.9895 14.3209 23.5665 14.7438Z" fill="#52C355"/>
</svg>
