<svg width="18" height="19" viewBox="0 0 18 19" fill="none" xmlns="http://www.w3.org/2000/svg">
<path d="M8.18325 15.7498H5.24992C4.73325 15.7498 4.27492 15.7332 3.86659 15.6748C1.67492 15.4332 1.08325 14.3998 1.08325 11.5832V7.4165C1.08325 4.59984 1.67492 3.5665 3.86659 3.32484C4.27492 3.2665 4.73325 3.24984 5.24992 3.24984H8.13325M11.5166 3.24984H12.7499C13.2666 3.24984 13.7249 3.2665 14.1333 3.32484C16.3249 3.5665 16.9166 4.59984 16.9166 7.4165V11.5832C16.9166 14.3998 16.3249 15.4332 14.1333 15.6748C13.7249 15.7332 13.2666 15.7498 12.7499 15.7498H11.5166M11.4999 1.1665V17.8332" stroke="#3E5667" stroke-width="1.5" stroke-linecap="round" stroke-linejoin="round"/>
<path d="M8.24579 9.5H8.25245M4.91162 9.5H4.91995" stroke="#3E5667" stroke-width="2" stroke-linecap="round" stroke-linejoin="round"/>
</svg>
