<svg width="18" height="19" viewBox="0 0 18 19" fill="none" xmlns="http://www.w3.org/2000/svg">
<path d="M5.66675 9.6665H11.5001M5.66675 12.9998H9.31675M7.33341 4.49984H10.6667C12.3334 4.49984 12.3334 3.6665 12.3334 2.83317C12.3334 1.1665 11.5001 1.1665 10.6667 1.1665H7.33341C6.50008 1.1665 5.66675 1.1665 5.66675 2.83317C5.66675 4.49984 6.50008 4.49984 7.33341 4.49984Z" stroke="#3E5667" stroke-width="1.5" stroke-miterlimit="10" stroke-linecap="round" stroke-linejoin="round"/>
<path d="M12.3333 2.8501C15.1083 3.0001 16.5 4.0251 16.5 7.83343V12.8334C16.5 16.1668 15.6667 17.8334 11.5 17.8334H6.5C2.33333 17.8334 1.5 16.1668 1.5 12.8334V7.83343C1.5 4.03343 2.89167 3.0001 5.66667 2.8501" stroke="#3E5667" stroke-width="1.5" stroke-miterlimit="10" stroke-linecap="round" stroke-linejoin="round"/>
</svg>
