<svg width="16" height="19" viewBox="0 0 16 19" fill="none" xmlns="http://www.w3.org/2000/svg">
<path d="M15.1582 17.8332C15.1582 14.6082 11.9499 11.9998 7.99989 11.9998C4.04989 11.9998 0.841553 14.6082 0.841553 17.8332M7.99989 9.49984C9.10495 9.49984 10.1648 9.06085 10.9462 8.27945C11.7276 7.49805 12.1666 6.43824 12.1666 5.33317C12.1666 4.2281 11.7276 3.16829 10.9462 2.38689C10.1648 1.60549 9.10495 1.1665 7.99989 1.1665C6.89482 1.1665 5.83501 1.60549 5.05361 2.38689C4.27221 3.16829 3.83322 4.2281 3.83322 5.33317C3.83322 6.43824 4.27221 7.49805 5.05361 8.27945C5.83501 9.06085 6.89482 9.49984 7.99989 9.49984Z" stroke="#3E5667" stroke-width="1.5" stroke-linecap="round" stroke-linejoin="round"/>
</svg>
