<svg width="114" height="110" viewBox="0 0 114 110" fill="none" xmlns="http://www.w3.org/2000/svg">
<path d="M112.16 67.2466L79.3975 72.2183L113.083 60.8442L112.292 58.5004L80.8991 69.1034L112.089 52.0372L110.902 49.8659L81.8326 65.7754L109.583 43.5346L108.041 41.6068L82.1877 62.3358L105.626 35.6002L103.769 33.9767L81.9239 58.886L100.35 28.4774L98.2392 27.199L81.0716 55.5377L93.9169 22.3795L91.6137 21.4866L79.641 52.3822L86.5202 17.4991L84.0952 17.0222L77.6929 49.5209L78.3828 13.9682L75.9173 13.9174L75.2679 47.0452L69.7585 11.9186L67.3233 12.3042L72.4574 45.0363L60.9108 11.4011L58.5772 12.2027L69.3323 43.5447L52.1038 12.4462L49.9426 13.6435L65.5376 41.7894L33.0185 0.80835L31.0806 2.34045L42.0691 16.1902L51.4139 28.0716L25.0638 4.72484L23.4303 6.57147L48.2279 28.5383L17.9106 9.96035L16.6221 12.0708L44.8695 29.3804L11.7823 16.3627L10.8792 18.6558L41.714 30.7806L6.86128 23.7289L6.37426 26.1539L38.8527 32.7287L3.31006 31.8562L3.24918 34.3217L36.377 35.1334L1.20977 40.4805L1.58518 42.9258L34.3477 37.9541L0.661865 49.3282L1.45328 51.672L32.8461 41.069L1.65621 58.1352L2.84333 60.3065L31.9126 44.397L4.15221 66.6378L5.69445 68.5656L31.5473 47.8366L8.10928 74.5723L9.96606 76.1957L31.8111 51.2864L13.3854 81.695L15.4958 82.9734L32.6634 54.6347L19.8182 87.7929L22.1214 88.6858L34.0941 57.7902L27.2148 92.6733L29.6398 93.1502L36.0422 60.6413L35.3522 96.1941L37.8178 96.2448L38.4671 63.117L43.9766 98.2437L46.4117 97.8581L41.2777 65.126L52.8242 98.7611L55.1579 97.9596L44.4027 66.6175L61.6312 97.7262L63.7924 96.5289L48.2076 68.383L80.7165 109.354L82.6544 107.822L71.6457 93.9416L62.3212 82.0907L88.6814 105.437L90.3149 103.591L65.5173 81.624L95.8345 100.202L97.1231 98.0915L68.8757 80.7818L101.963 93.7996L102.866 91.5065L72.0312 79.3816L106.884 86.4333L107.371 84.0083L74.8925 77.4335L110.435 78.3061L110.496 75.8405L77.3682 75.0288L112.525 69.6919L112.16 67.2466ZM70.7528 72.5937C65.3955 76.845 57.6031 75.9521 53.3417 70.5847L53.4026 70.6659L44.5651 59.5354L40.9733 54.9695L40.9226 54.8884L40.9834 54.9695C36.7321 49.6122 37.625 41.8199 42.9924 37.5584C48.3497 33.3071 56.1421 34.2 60.4035 39.5674L60.3427 39.4862L69.1801 50.6167L72.7719 55.1826L72.8227 55.2638L72.7618 55.1826C77.0131 60.55 76.1101 68.3424 70.7528 72.5937Z" fill="#233745"/>
</svg>
