<svg width="68" height="67" viewBox="0 0 68 67" fill="none" xmlns="http://www.w3.org/2000/svg">
<path d="M67.3404 40.9252L47.6329 43.9158L67.8958 37.074L67.4197 35.6642L48.5362 42.0421L67.2977 31.7764L66.5836 30.4703L49.0977 40.0402L65.7902 26.6618L64.8625 25.5022L49.3113 37.9712L63.4099 21.8891L62.293 20.9125L49.1526 35.8961L60.2362 17.6046L58.9667 16.8356L48.64 33.882L56.3667 13.9365L54.9813 13.3994L47.7794 31.9839L51.9174 11.0008L50.4587 10.714L46.6076 30.2628L47.0226 8.87689L45.5395 8.84637L45.1489 28.7736L41.8348 7.64403L40.37 7.87595L43.4583 27.5651L36.5127 7.33276L35.109 7.81492L41.5785 26.6679L31.2151 7.96139L29.9151 8.68158L39.2958 25.6121L19.7348 0.960938L18.5691 1.88253L25.179 10.2135L30.8001 17.3604L14.9499 3.3168L13.9672 4.4276L28.8836 17.6412L10.6471 6.46609L9.87194 7.73558L26.8635 18.1478L6.96068 10.3173L6.41748 11.6966L24.9653 18.99L4.00059 14.7482L3.70763 16.2069L23.2442 20.1618L1.86444 19.637L1.82782 21.1201L21.755 21.6083L0.601061 24.8248L0.826883 26.2956L20.5344 23.305L0.271484 30.1468L0.747539 31.5567L19.6311 25.1787L0.869605 35.4445L1.58369 36.7506L19.0696 27.1806L2.37101 40.559L3.29871 41.7186L18.8499 29.2496L4.75129 45.3318L5.86819 46.3083L19.0085 31.3247L7.92499 49.6163L9.19447 50.3853L19.5212 33.3388L11.7945 53.2843L13.1799 53.8214L20.3818 35.2369L16.2438 56.22L17.7024 56.5069L21.5536 36.952L21.1386 58.3378L22.6217 58.3684L23.0123 38.4412L26.3264 59.5707L27.7912 59.3388L24.7029 39.6496L31.6484 59.882L33.0522 59.3998L26.5827 40.5468L36.9461 59.2594L38.2461 58.5392L28.8714 41.6088L48.4263 66.2538L49.5921 65.3322L42.97 56.9829L37.3611 49.8543L53.2174 63.8979L54.2 62.7871L39.2836 49.5735L57.5202 60.7486L58.2953 59.4791L41.3038 49.067L61.2066 56.8975L61.7498 55.5181L43.2019 48.2247L64.1667 52.4665L64.4596 51.0078L44.9231 47.0529L66.3028 47.5778L66.3395 46.0947L46.4123 45.6064L67.5601 42.3961L67.3404 40.9252ZM42.4329 44.1416C39.2104 46.6989 34.5231 46.1618 31.9597 42.9332L31.9963 42.982L26.6804 36.2867L24.5198 33.5402L24.4893 33.4914L24.5259 33.5402C21.9686 30.3177 22.5057 25.6304 25.7344 23.067C28.9569 20.5097 33.6442 21.0468 36.2076 24.2755L36.171 24.2266L41.4869 30.9219L43.6475 33.6684L43.678 33.7172L43.6414 33.6684C46.1986 36.897 45.6555 41.5843 42.4329 44.1416Z" fill="url(#paint0_linear_537_3418)"/>
<defs>
<linearGradient id="paint0_linear_537_3418" x1="0.266211" y1="33.6084" x2="67.8976" y2="33.6084" gradientUnits="userSpaceOnUse">
<stop stop-color="#00A4E3"/>
<stop offset="0.15" stop-color="#00F2DE"/>
<stop offset="0.25" stop-color="#67F46A"/>
<stop offset="0.35" stop-color="#ACF73A"/>
<stop offset="0.5" stop-color="#F7F006"/>
<stop offset="0.65" stop-color="#FFAC00"/>
<stop offset="0.85" stop-color="#FF7500"/>
<stop offset="0.9974" stop-color="#F92F6E"/>
</linearGradient>
</defs>
</svg>
