<svg width="148" height="57" viewBox="0 0 148 57" fill="none" xmlns="http://www.w3.org/2000/svg">
<path d="M71.243 30.6023V17.9894H74.4926V30.6023C74.4926 34.1071 76.3726 36.2422 80.0336 36.2422C83.6946 36.2422 85.5745 34.1071 85.5745 30.6023V17.9894H88.7304V30.6023C88.7304 35.8569 85.6422 39.2367 80.0336 39.2367C74.3989 39.2314 71.243 35.8881 71.243 30.6023Z" fill="#003140"/>
<path d="M92.5164 26.2071C92.5164 20.9213 95.6723 17.5728 101.307 17.5728C106.978 17.5728 110.129 20.9161 110.129 26.2071V38.82H106.879V26.2071C106.879 22.7023 104.968 20.5672 101.307 20.5672C97.6772 20.5672 95.766 22.7023 95.766 26.2071V38.82H92.5164V26.2071Z" fill="#003140"/>
<path d="M117.518 20.6974H112.993V17.9894H120.544V38.82H117.518V20.6974Z" fill="#003140"/>
<path d="M143.89 42.1008L141.026 38.3096C139.625 38.9137 138.031 39.2314 136.282 39.2314C129.783 39.2314 125.195 34.6434 125.195 28.3995C125.195 22.1555 129.783 17.5675 136.282 17.5675C142.781 17.5675 147.369 22.1555 147.369 28.3995C147.369 31.873 145.968 34.7997 143.578 36.7473L147.593 42.1008H143.89ZM139.115 35.7631L135.547 31.0502H139.307L141.698 34.2372C143.192 32.8364 144.088 30.795 144.088 28.4099C144.088 23.8844 140.901 20.5723 136.282 20.5723C131.663 20.5723 128.475 23.8844 128.475 28.4099C128.475 32.9353 131.663 36.2474 136.282 36.2474C137.297 36.237 138.255 36.0808 139.115 35.7631Z" fill="#003140"/>
<path d="M58.0364 34.5445L41.2573 37.091L58.5155 31.2636L58.1093 30.0659L42.028 35.4975L58.0051 26.7538L57.3958 25.6446L42.5071 33.7946L56.7188 22.395L55.9273 21.4107L42.6842 32.024L54.6931 18.3278L53.7401 17.4946L42.5488 30.2534L51.9903 14.6824L50.9071 14.0263L42.1113 28.54L48.6938 11.5578L47.5169 11.0996L41.3875 26.9257L44.9079 9.05815L43.6684 8.81339L40.3876 25.4675L40.7417 7.2563L39.4763 7.23026L39.1482 24.1968L36.3256 6.20435L35.0758 6.40224L37.7057 23.1709L31.7898 5.94397L30.592 6.35537L36.1017 22.4054L27.2747 6.47515L26.1707 7.08965L34.154 21.5045L17.4999 0.517578L16.5105 1.30394L22.1399 8.39157L26.931 14.4741L13.4275 2.51732L12.5891 3.46512L25.2958 14.7189L9.76132 5.20448L9.09994 6.28246L23.5721 15.1511L6.6211 8.48531L6.15761 9.66224L21.9525 15.875L4.10058 12.2609L3.85062 13.5003L20.4839 16.8644L2.2779 16.4166L2.24666 17.682L19.2132 18.0987L1.20512 20.8327L1.3926 22.0825L18.1717 19.536L0.918701 25.3634L1.3249 26.5611L17.4062 21.1295L1.42905 29.8732L2.03835 30.9824L16.9271 22.8324L2.71535 34.232L3.50691 35.2163L16.75 24.5978L4.74113 38.294L5.69413 39.1272L16.8854 26.3684L7.44912 41.9446L8.53231 42.6007L17.3281 28.087L10.7352 45.0692L11.9121 45.5274L18.0415 29.7013L14.5211 47.5688L15.7606 47.8136L19.0414 31.1595L18.6873 49.3707L19.9527 49.3967L20.2808 32.4302L23.1034 50.4226L24.3532 50.2248L21.7233 33.4561L27.6392 50.683L28.837 50.2716L23.3273 34.2216L32.1543 50.1518L33.2583 49.5373L25.275 35.1225L41.9291 56.1094L42.9185 55.3231L37.2838 48.2198L32.5084 42.1477L46.0119 54.1097L46.8503 53.1619L34.1436 41.9081L49.6729 51.4277L50.3343 50.3497L35.8621 41.4811L52.8131 48.1469L53.2766 46.97L37.4817 40.7572L55.3336 44.3713L55.5836 43.1319L38.9503 39.7678L57.1563 40.2156L57.1875 38.9502L40.221 38.5335L58.2291 35.7995L58.0364 34.5445ZM36.8256 37.2837C34.0811 39.4605 30.0868 39.0022 27.91 36.2578L27.9413 36.2994L23.4158 30.5971L21.5775 28.2588L21.5515 28.2172L21.5827 28.2588C19.4059 25.5144 19.8642 21.5201 22.6086 19.3433C25.3531 17.1665 29.3474 17.6248 31.5242 20.3692L31.4929 20.3275L36.0184 26.0247L37.8567 28.363L37.8827 28.4046L37.8515 28.363C40.0335 31.1126 39.5752 35.1069 36.8256 37.2837Z" fill="url(#paint0_linear_234_1189)"/>
<defs>
<linearGradient id="paint0_linear_234_1189" x1="3.55496" y1="13.2091" x2="55.8782" y2="43.418" gradientUnits="userSpaceOnUse">
<stop stop-color="#00A4E3"/>
<stop offset="0.15" stop-color="#00F2DE"/>
<stop offset="0.25" stop-color="#67F46A"/>
<stop offset="0.35" stop-color="#ACF73A"/>
<stop offset="0.5" stop-color="#F7F006"/>
<stop offset="0.65" stop-color="#FFAC00"/>
<stop offset="0.85" stop-color="#FF7500"/>
<stop offset="0.9974" stop-color="#F92F6E"/>
</linearGradient>
</defs>
</svg>
